<?xml version="1.0" standalone="no"?>
<!DOCTYPE svg PUBLIC "-//W3C//DTD SVG 20010904//EN"
 "http://www.w3.org/TR/2001/REC-SVG-20010904/DTD/svg10.dtd">
<svg version="1.0" xmlns="http://www.w3.org/2000/svg"
 width="56pt" height="56pt" viewBox="0 0 590.000000 590.000000"
 preserveAspectRatio="xMidYMid meet">

<g transform="translate(0.000000,590.000000) scale(0.100000,-0.100000)"
fill="#000000" stroke="none">
<path d="M3303 5856 c-24 -20 -37 -24 -64 -20 -19 3 -50 2 -69 -3 -28 -7 -35
-14 -35 -34 0 -23 3 -24 75 -25 45 -1 76 -6 78 -13 2 -6 15 -11 28 -11 28 0
134 -91 153 -132 6 -15 14 -44 16 -65 1 -21 3 -40 4 -42 1 -2 7 2 15 8 12 10
17 8 26 -8 27 -52 -3 -247 -43 -273 -7 -4 -4 -19 7 -43 11 -23 15 -46 11 -63
-8 -31 -95 -127 -116 -127 -10 0 -16 -20 -21 -74 -5 -41 -12 -79 -18 -85 -5
-5 -10 -20 -10 -33 0 -13 -4 -23 -8 -23 -5 0 -14 -11 -20 -25 -6 -14 -18 -25
-26 -25 -8 0 -17 -14 -21 -32 -3 -18 -10 -42 -15 -53 -23 -55 -29 -88 -19
-106 7 -13 7 -31 -1 -57 -5 -20 -10 -47 -10 -60 0 -13 -14 -41 -32 -63 -24
-30 -29 -42 -20 -51 7 -7 12 -9 12 -4 0 4 12 -1 28 -12 15 -10 35 -22 45 -25
11 -4 21 -16 24 -27 6 -22 24 -30 71 -28 20 1 32 6 32 15 0 7 14 16 30 20 17
3 35 14 41 24 7 15 21 19 59 19 31 0 50 4 50 11 0 13 125 7 138 -6 4 -4 6 -51
4 -106 -2 -83 0 -99 13 -99 8 0 15 9 15 19 0 26 17 36 56 32 42 -3 61 20 34
44 -11 10 -20 25 -20 33 0 8 -6 20 -14 26 -8 6 -17 29 -21 52 -6 36 -4 41 19
52 14 6 26 8 26 3 0 -4 7 -8 15 -8 11 0 15 11 15 38 0 32 -5 41 -34 59 -30 18
-35 27 -38 63 -3 39 -5 42 -33 45 -22 2 -37 -4 -55 -23 -13 -14 -31 -25 -41
-25 -26 0 -31 -14 -14 -46 13 -25 13 -31 -1 -54 -22 -35 -53 -60 -74 -60 -9 0
-22 -10 -28 -22 -8 -18 -11 -19 -11 -5 -1 20 -43 24 -59 4 -6 -7 -33 -14 -59
-15 l-49 -2 3 74 c2 67 1 75 -17 81 -26 8 -25 33 2 62 17 18 23 37 24 79 2 67
27 104 54 79 25 -22 74 -15 135 22 20 12 20 12 -2 32 -12 12 -27 21 -33 21 -6
0 -9 4 -5 9 3 5 1 12 -5 16 -12 8 -13 40 -1 63 5 9 15 32 22 50 6 18 27 45 45
59 l34 25 -3 92 c-2 87 0 95 26 133 26 37 28 47 25 118 -2 64 -7 82 -25 102
-13 13 -23 30 -23 37 0 8 -7 16 -15 20 -17 6 -20 42 -5 51 6 4 4 17 -5 36 -14
27 -14 31 2 53 10 14 26 27 36 30 14 3 17 10 12 28 -12 39 -27 50 -57 44 -17
-3 -33 0 -43 10 -8 9 -15 13 -15 9 0 -9 -25 13 -84 71 -65 66 -85 72 -123 40z
m147 -1041 c0 -20 -5 -25 -25 -25 -20 0 -25 5 -25 25 0 20 5 25 25 25 20 0 25
-5 25 -25z"/>
<path d="M2968 5819 c-10 -5 -18 -17 -18 -24 0 -11 -14 -15 -55 -15 -44 0 -65
-6 -104 -31 -28 -16 -73 -38 -100 -48 -28 -10 -59 -25 -70 -35 -12 -11 -21
-14 -26 -7 -9 16 -18 14 -44 -11 -18 -16 -28 -19 -40 -11 -13 8 -26 1 -63 -38
-30 -29 -46 -53 -42 -62 7 -19 -20 -73 -41 -80 -8 -4 -15 -15 -15 -25 0 -10
-11 -24 -25 -30 -14 -6 -25 -16 -25 -22 0 -5 -9 -10 -19 -10 -11 0 -33 -11
-49 -25 -17 -14 -37 -25 -45 -25 -9 0 -28 -11 -42 -24 -23 -21 -91 -43 -120
-38 -27 4 -96 -27 -132 -59 -32 -29 -42 -46 -47 -83 -7 -45 -6 -46 18 -46 14
0 26 5 26 10 0 6 13 10 29 10 15 0 39 9 53 20 18 14 28 16 36 8 16 -16 41 -2
52 27 8 22 13 24 29 15 25 -13 38 4 20 26 -10 13 -10 17 1 24 7 4 22 7 32 5
12 -3 36 13 65 41 26 24 53 44 62 44 17 0 81 22 96 32 6 4 24 19 42 33 17 14
45 28 63 31 31 7 105 81 105 107 0 6 17 12 40 13 41 2 128 -38 155 -71 7 -8
21 -15 32 -15 40 0 208 106 208 131 0 4 -9 9 -20 12 -11 3 -20 12 -20 20 0 8
-15 18 -32 24 -23 6 -32 15 -30 26 2 9 -2 26 -8 37 -9 17 -6 23 24 41 19 11
37 26 40 34 4 11 17 13 55 8 38 -4 57 -2 77 12 l26 17 -31 19 c-34 21 -95 25
-123 8z m-328 -198 c0 -16 -27 -37 -36 -28 -4 4 25 47 32 47 2 0 4 -9 4 -19z"/>
<path d="M3215 5530 c-9 -16 -23 -30 -31 -30 -9 0 -14 -6 -11 -12 2 -7 -7 -28
-20 -46 -21 -27 -23 -39 -18 -73 5 -30 10 -38 18 -30 6 6 26 11 45 11 19 0 47
9 63 21 16 11 33 18 37 15 5 -3 19 4 30 15 30 28 31 105 2 114 -11 3 -25 15
-30 26 -17 31 -66 25 -85 -11z"/>
<path d="M3050 5331 c0 -12 29 -35 36 -28 11 10 -5 37 -21 37 -8 0 -15 -4 -15
-9z"/>
<path d="M2913 5301 c-3 -12 -12 -21 -19 -21 -8 0 -14 -4 -14 -10 0 -5 7 -10
15 -10 8 0 15 4 15 9 0 5 12 12 26 15 28 7 28 29 0 34 -11 2 -19 -4 -23 -17z"/>
<path d="M2490 5265 c0 -8 5 -15 10 -15 6 0 10 7 10 15 0 8 -4 15 -10 15 -5 0
-10 -7 -10 -15z"/>
<path d="M2130 5131 c0 -21 7 -34 22 -42 13 -7 29 -18 36 -26 7 -7 17 -13 22
-13 13 0 50 41 50 56 0 18 -41 41 -88 49 -42 7 -42 7 -42 -24z"/>
<path d="M2335 5131 c-6 -5 -21 -11 -35 -13 -41 -5 -31 -33 12 -33 25 0 45 -8
62 -24 l26 -24 9 24 c5 13 6 28 4 32 -3 5 4 11 16 14 25 6 27 18 5 27 -24 9
-89 7 -99 -3z"/>
<path d="M2595 5098 c-33 -5 -80 -10 -104 -12 -51 -5 -73 -27 -37 -39 13 -4
26 -17 29 -28 5 -19 12 -20 64 -17 32 3 72 11 89 18 38 16 84 6 84 -19 0 -10
9 -26 19 -35 11 -10 25 -31 31 -47 10 -22 19 -29 41 -29 19 0 30 6 34 19 3 11
17 36 31 56 l24 37 -47 53 -48 54 -75 -1 c-41 -1 -102 -5 -135 -10z"/>
<path d="M3095 5070 c-34 -35 -30 -44 14 -29 17 6 38 8 47 5 13 -5 12 -1 -3
24 -9 17 -20 30 -23 30 -4 0 -19 -13 -35 -30z"/>
<path d="M3266 5068 c-9 -5 -22 -8 -28 -7 -35 4 -43 -2 -43 -34 0 -30 2 -32
28 -29 19 3 27 0 27 -11 0 -17 26 -14 70 6 52 25 53 49 1 69 -25 10 -44 12
-55 6z"/>
<path d="M2970 4984 c0 -9 5 -14 12 -12 18 6 21 28 4 28 -9 0 -16 -7 -16 -16z"/>
<path d="M4313 4913 c-7 -3 -13 -11 -13 -19 0 -8 -5 -14 -11 -14 -5 0 -8 -4
-5 -9 3 -5 -1 -14 -10 -22 -13 -10 -16 -9 -21 10 -3 12 -11 20 -17 18 -12 -5
-12 -11 -1 -39 5 -12 2 -18 -7 -18 -7 0 -19 -9 -26 -20 -9 -15 -17 -18 -30
-12 -9 5 -23 7 -31 4 -10 -3 -12 0 -7 13 5 14 2 16 -14 12 -11 -3 -23 -1 -26
4 -10 16 -98 9 -134 -11 -19 -11 -30 -19 -25 -20 23 -2 -31 -30 -57 -30 -16 0
-46 -11 -68 -25 -31 -20 -40 -32 -40 -53 0 -46 12 -54 88 -58 64 -4 72 -2 86
18 9 12 16 32 16 43 1 30 33 68 55 64 11 -2 22 -15 25 -29 4 -16 14 -26 28
-28 12 -2 22 -8 22 -13 0 -8 38 -4 46 5 1 0 5 11 8 24 6 16 3 22 -8 22 -9 0
-16 7 -16 15 0 20 29 19 37 -1 4 -12 8 -12 13 -3 8 12 148 30 165 20 6 -3 35
-4 66 -2 43 2 63 -2 93 -20 21 -12 50 -22 65 -21 24 0 27 -3 23 -24 -2 -13 0
-24 6 -24 6 0 8 -8 5 -18 -3 -12 1 -19 11 -19 13 0 13 4 1 34 l-14 34 37 -7
c20 -4 39 -11 40 -15 8 -20 29 -7 47 29 34 68 15 91 -81 98 -37 3 -76 9 -84
14 -9 5 -27 6 -40 3 -18 -5 -22 -3 -17 10 3 10 -6 27 -26 48 -28 28 -40 32
-87 34 -30 1 -61 0 -67 -2z m4 -105 c-3 -8 -6 -5 -6 6 -1 11 2 17 5 13 3 -3 4
-12 1 -19z m161 -6 c2 -7 -3 -12 -12 -12 -9 0 -16 7 -16 16 0 17 22 14 28 -4z"/>
<path d="M2780 4835 c-8 -9 -14 -25 -15 -36 -3 -32 -35 -59 -72 -59 -30 0 -33
-3 -33 -28 0 -31 32 -68 49 -57 6 3 14 -1 17 -9 7 -18 59 -22 69 -6 3 5 12 7
20 3 16 -5 16 -4 22 62 11 134 10 140 -18 143 -15 2 -31 -4 -39 -13z"/>
<path d="M2967 4683 c-4 -3 -7 -12 -7 -20 0 -12 15 -12 75 -4 6 1 1 8 -9 16
-21 16 -48 20 -59 8z"/>
<path d="M4797 4643 c-7 -16 -19 -27 -25 -25 -7 1 -12 -9 -12 -23 0 -14 -8
-37 -17 -51 -16 -26 -16 -26 13 -23 52 4 67 0 56 -13 -5 -7 -12 -24 -14 -38
-4 -34 -41 -39 -62 -8 -9 12 -16 17 -16 10 0 -19 -39 -14 -72 10 -17 12 -45
22 -62 22 -17 1 -37 5 -44 9 -13 9 -52 0 -52 -11 0 -4 -25 -8 -55 -9 -38 -2
-55 1 -55 10 0 8 -3 8 -9 -2 -7 -10 -22 -12 -64 -7 -44 6 -56 4 -60 -8 -9 -23
-37 -20 -37 4 0 13 7 20 20 20 11 0 23 7 26 15 4 8 16 15 29 15 24 0 35 17 35
56 0 27 -12 31 -30 9 -17 -20 -47 -19 -59 3 -9 15 -12 15 -21 2 -5 -8 -10 -32
-10 -52 0 -20 -5 -40 -11 -44 -7 -4 -10 5 -8 27 4 60 1 69 -26 69 -39 0 -62
-69 -33 -98 9 -9 6 -18 -14 -39 -22 -24 -24 -32 -16 -55 5 -16 14 -28 19 -28
6 0 8 4 5 9 -6 10 74 25 114 23 14 -1 49 -2 78 -2 28 0 52 -5 52 -10 0 -6 4
-10 10 -10 5 0 7 7 4 15 -12 30 42 17 67 -16 55 -72 75 -83 99 -54 19 23 89
19 116 -6 12 -11 35 -23 52 -25 27 -4 32 0 56 41 15 26 34 45 44 45 9 0 32
-19 51 -42 33 -39 34 -41 16 -54 -15 -11 -16 -17 -7 -26 17 -17 82 48 86 88 2
16 4 32 5 36 3 18 30 -6 28 -24 -2 -16 5 -21 31 -23 22 -2 32 2 32 11 0 8 9
23 21 35 16 16 18 25 11 47 -8 24 -14 27 -47 24 -36 -3 -37 -2 -32 24 5 28
-17 63 -31 49 -4 -4 -1 -10 6 -12 17 -6 15 -23 -3 -23 -7 0 -18 -8 -24 -17 -8
-14 -12 -15 -25 -4 -22 18 -20 31 4 31 29 0 25 10 -18 51 -21 20 -49 50 -61
67 -27 39 -36 40 -54 5z m85 -89 c-10 -36 -15 -44 -28 -44 -15 0 -18 18 -8 43
6 16 41 17 36 1z"/>
<path d="M2617 4582 c-10 -10 -17 -26 -17 -36 0 -15 2 -15 25 0 14 9 25 25 25
35 0 24 -12 24 -33 1z"/>
<path d="M2756 4474 c-4 -11 -10 -12 -22 -6 -24 13 -45 5 -72 -29 -29 -36 -23
-86 11 -91 20 -3 19 -5 -11 -21 -36 -20 -52 -16 -52 14 0 24 -18 24 -44 0 -26
-25 -133 -35 -153 -15 -19 19 -16 34 7 34 11 0 20 5 20 10 0 6 -22 10 -50 10
-43 0 -50 -3 -50 -20 0 -11 -3 -20 -7 -21 -5 0 -19 -2 -33 -4 -14 -1 -31 2
-37 7 -16 13 -61 -4 -92 -34 -21 -18 -24 -19 -46 -4 -18 12 -36 14 -66 10 -29
-5 -43 -3 -49 6 -5 7 -31 15 -58 16 -46 3 -50 1 -54 -21 -3 -13 -2 -28 1 -33
12 -18 50 -32 88 -32 35 -1 37 -2 19 -15 -14 -11 -17 -22 -13 -49 3 -20 1 -38
-4 -42 -6 -3 -8 -12 -5 -19 2 -7 -6 -23 -20 -36 -23 -21 -24 -21 -25 -3 -1 10
-1 22 0 27 3 20 -18 4 -23 -18 -4 -15 -13 -25 -25 -25 -14 0 -21 13 -32 60
-18 82 -25 91 -49 62 -27 -32 -17 -150 17 -204 12 -21 23 -44 23 -52 0 -8 6
-16 13 -19 12 -4 36 -100 35 -142 0 -11 7 -45 16 -75 9 -30 16 -65 16 -78 0
-19 4 -22 21 -17 12 4 27 1 37 -8 9 -8 32 -22 50 -31 29 -15 32 -20 32 -64 0
-52 -16 -118 -30 -127 -5 -3 -16 11 -26 30 -16 34 -18 35 -35 19 -23 -20 -24
-62 -5 -109 13 -30 18 -34 38 -26 13 4 29 20 36 34 7 15 17 27 23 27 13 0 11
-54 -3 -69 -11 -11 -10 -14 0 -18 7 -3 19 -17 25 -32 11 -25 12 -24 15 22 2
26 7 47 13 47 5 0 9 9 9 19 0 11 4 21 10 23 24 8 6 208 -25 267 -9 18 -14 39
-11 46 8 23 -6 25 -24 3 -37 -46 -60 6 -60 138 0 58 -10 67 -34 33 -21 -31
-41 -18 -56 35 -16 59 -7 106 30 142 28 28 41 52 20 39 -5 -3 -10 -1 -10 5 0
6 12 15 26 20 21 8 25 15 22 35 -3 14 -1 25 3 25 5 0 9 6 9 13 0 11 73 47 97
47 6 0 14 -6 16 -12 4 -10 6 -10 6 0 1 6 13 12 27 12 16 0 24 -5 22 -12 -3 -7
4 -22 14 -32 10 -11 16 -26 14 -32 -3 -7 2 -18 10 -24 22 -19 18 32 -4 56 -15
15 -17 25 -10 47 9 25 14 27 62 27 39 0 57 -5 69 -18 10 -10 17 -22 17 -27 0
-4 12 -34 26 -66 24 -52 25 -62 14 -89 -10 -23 -10 -34 -2 -42 8 -8 10 -43 6
-112 -6 -83 -12 -112 -37 -164 -19 -41 -31 -83 -33 -119 l-3 -56 23 22 c17 16
28 43 36 87 15 80 50 87 50 10 0 -32 30 -116 53 -150 18 -25 21 -26 30 -11 5
9 7 34 3 54 -6 39 5 68 23 57 15 -9 14 26 -1 75 -6 22 -8 42 -5 45 10 10 72
-32 69 -46 -2 -10 0 -11 10 -2 8 6 19 7 27 2 8 -4 19 -4 25 1 6 5 32 26 59 46
30 22 50 47 55 66 8 30 36 57 47 45 6 -5 8 -14 14 -48 3 -15 21 29 21 50 0 14
9 43 20 65 11 22 20 44 20 51 0 6 11 27 24 47 13 19 26 52 29 72 3 21 12 44
21 53 14 14 16 14 22 -1 3 -9 4 -45 2 -82 -2 -47 0 -65 10 -65 11 0 17 -21 12
-45 -1 -5 8 0 20 13 18 19 21 36 23 105 1 45 -2 99 -7 120 -8 35 -7 37 18 37
17 0 29 -7 32 -17 16 -51 27 -72 38 -76 7 -3 13 1 13 9 0 8 -4 14 -8 14 -4 0
-10 12 -13 28 -4 15 -9 38 -13 52 -4 14 -7 46 -7 72 -1 25 -4 44 -7 42 -9 -5
-21 25 -14 36 3 5 -7 6 -22 4 -16 -3 -32 -4 -38 -4 -5 1 -36 3 -67 6 -52 5
-56 4 -52 -13 3 -10 -4 -29 -15 -42 -24 -27 -27 -45 -8 -38 16 5 37 -46 37
-93 0 -59 -75 -140 -129 -140 -14 0 -18 -10 -20 -47 -1 -28 -14 -71 -29 -102
-35 -71 -123 -167 -145 -158 -13 5 -14 12 -6 39 5 18 9 59 9 90 0 58 15 84 32
54 8 -14 16 -8 49 39 34 48 39 63 39 110 0 45 3 55 17 55 9 0 13 3 10 7 -4 3
2 16 13 28 19 21 20 26 9 71 -7 27 -15 51 -19 54 -4 3 -4 16 1 29 6 16 14 21
26 17 10 -4 23 1 35 14 23 24 38 18 38 -16 0 -13 3 -24 8 -24 4 0 6 22 5 50 0
28 3 53 8 56 16 10 9 24 -12 24 -17 0 -20 -5 -17 -25 7 -33 -4 -32 -40 5 -17
17 -38 30 -47 30 -12 0 -15 6 -10 19 7 23 -10 37 -19 15z m-321 -204 c3 -5 1
-10 -4 -10 -6 0 -11 5 -11 10 0 6 2 10 4 10 3 0 8 -4 11 -10z m165 -15 c7 -9
19 -14 27 -11 15 6 16 3 17 -90 1 -46 6 -77 15 -88 10 -11 11 -20 5 -24 -31
-21 -61 -51 -76 -77 -9 -17 -26 -32 -37 -35 -21 -5 -21 -5 -2 -36 15 -25 18
-44 14 -97 -4 -50 -9 -64 -19 -60 -8 3 -14 16 -14 28 0 13 -6 25 -12 28 -19 6
-11 186 8 208 18 20 18 29 -2 29 -13 0 -14 3 -5 14 9 10 8 15 -2 19 -7 2 -19
28 -27 56 -7 28 -17 51 -21 51 -4 0 -9 18 -11 40 l-4 40 48 0 c27 0 48 5 48
10 0 16 36 12 50 -5z m150 -95 c0 -25 -4 -30 -25 -30 -27 0 -41 20 -31 45 3 8
17 15 31 15 21 0 25 -5 25 -30z"/>
<path d="M3506 4452 c-2 -4 -2 -12 2 -18 10 -14 71 -38 79 -30 3 3 1 6 -6 6
-6 0 -16 11 -21 25 -9 24 -43 35 -54 17z"/>
<path d="M3475 4430 c3 -5 8 -10 11 -10 2 0 4 5 4 10 0 6 -5 10 -11 10 -5 0
-7 -4 -4 -10z"/>
<path d="M1525 4360 c-3 -5 3 -10 15 -10 12 0 18 5 15 10 -3 6 -10 10 -15 10
-5 0 -12 -4 -15 -10z"/>
<path d="M1778 4363 c12 -2 32 -2 45 0 12 2 2 4 -23 4 -25 0 -35 -2 -22 -4z"/>
<path d="M1402 4328 c-20 -20 -13 -27 28 -26 22 0 40 5 40 10 0 5 -6 8 -12 5
-7 -2 -20 2 -29 9 -12 11 -18 11 -27 2z"/>
<path d="M1690 4333 c-85 -11 -90 -13 -90 -42 0 -18 8 -34 23 -44 l22 -16 -25
0 c-15 -1 -30 3 -35 8 -19 16 -80 20 -100 5 -17 -13 -21 -12 -40 9 -28 33 -59
39 -84 16 -11 -11 -26 -19 -32 -19 -7 0 -23 -10 -35 -21 -23 -22 -23 -22 -3
-38 27 -22 17 -43 -40 -85 -33 -25 -54 -33 -70 -29 -23 6 -65 -23 -55 -39 3
-5 1 -15 -6 -23 -6 -7 -10 -19 -9 -27 3 -29 -2 -39 -26 -48 -26 -10 -29 -26
-16 -85 11 -49 -39 -145 -76 -145 -9 0 -13 -15 -13 -50 0 -39 -4 -53 -20 -62
-11 -7 -20 -17 -20 -22 0 -5 -7 -18 -17 -28 -15 -17 -15 -20 5 -41 12 -13 22
-33 22 -45 0 -19 6 -22 38 -22 32 0 41 5 51 26 11 26 12 26 26 8 8 -11 15 -27
15 -37 0 -10 4 -16 9 -12 6 3 15 -4 21 -15 10 -18 7 -24 -12 -21 -4 0 -25 -6
-47 -14 -23 -8 -44 -14 -47 -14 -3 0 -8 -2 -11 -5 -4 -3 0 -6 7 -6 7 0 10 -3
7 -7 -10 -10 13 -33 33 -33 13 0 17 -6 13 -19 -4 -17 -1 -19 29 -15 31 5 51
21 62 48 2 6 15 -1 30 -17 27 -27 53 -29 93 -8 7 4 31 5 53 3 37 -4 40 -6 40
-34 0 -27 3 -30 23 -23 12 3 31 8 42 9 11 2 20 7 20 12 1 5 4 19 8 31 5 13 2
35 -6 56 -23 53 -31 116 -17 132 6 8 9 18 7 22 -6 10 90 79 98 71 3 -2 -4 -14
-14 -25 -10 -11 -21 -29 -23 -39 -2 -10 -6 -17 -9 -14 -3 3 -13 -3 -23 -12
-15 -15 -15 -23 -5 -60 6 -24 11 -62 10 -85 -2 -47 12 -62 38 -39 10 9 25 16
34 16 23 0 21 23 -3 45 -16 14 -18 26 -14 64 4 26 14 53 24 62 14 12 17 28 15
76 -3 71 10 103 48 121 15 7 27 21 27 31 0 19 -39 61 -57 61 -12 0 -42 -41
-60 -82 -13 -31 -50 -41 -38 -10 14 34 18 138 6 160 -21 40 -32 25 -26 -35 5
-44 3 -63 -9 -78 -14 -17 -17 -18 -26 -5 -5 8 -10 23 -10 32 0 9 -4 19 -9 22
-5 3 -7 14 -4 24 5 19 -23 50 -34 38 -3 -3 -1 -6 6 -6 7 0 10 -4 6 -9 -3 -5
-1 -12 4 -16 7 -4 5 -18 -3 -38 -8 -18 -19 -44 -25 -59 -17 -44 -28 -33 -29
27 0 31 -6 63 -13 71 -10 13 -10 17 2 25 8 5 19 9 26 9 8 0 10 11 6 33 -5 34
-4 36 103 126 17 14 28 33 29 49 0 27 3 27 70 23 8 -1 15 -10 15 -20 0 -23
-16 -36 -25 -21 -10 17 -25 11 -25 -10 0 -10 9 -24 20 -30 11 -6 20 -20 20
-32 0 -20 25 -47 45 -48 6 0 5 4 -2 8 -9 6 -9 23 -1 73 12 69 4 135 -13 108
-6 -10 -9 -8 -9 12 0 14 9 34 20 44 18 16 25 14 21 -7 0 -5 4 -8 9 -8 5 0 10
14 10 30 0 30 15 41 22 18 8 -24 58 8 58 36 0 33 20 43 38 20 13 -16 14 -17 9
-1 -4 9 -2 17 4 17 17 0 35 23 34 44 0 17 -7 20 -45 21 -25 0 -56 -1 -70 -2z
m-231 -179 c8 -7 -31 -93 -54 -118 -29 -31 -65 -34 -72 -6 -4 15 -11 18 -28
14 -13 -3 -26 -1 -29 5 -6 9 44 17 76 12 10 -1 78 67 78 78 0 4 -10 13 -22 19
-20 11 -19 11 12 6 19 -4 37 -8 39 -10z m-176 -208 c-33 -45 -55 -65 -70 -65
-17 -1 -23 5 -23 21 0 25 56 88 79 88 9 0 25 7 35 15 35 27 28 8 -21 -59z m2
-143 c-3 -27 -12 -60 -20 -75 -9 -18 -9 -25 -1 -22 12 5 37 -55 40 -99 2 -15
6 -30 11 -35 5 -4 5 -1 1 5 -5 9 0 13 16 12 13 0 32 1 43 3 13 2 24 -6 33 -25
18 -37 10 -55 -32 -72 -20 -8 -40 -24 -46 -34 -7 -14 -19 -19 -41 -17 -36 3
-59 28 -60 65 0 22 -2 23 -8 7 -7 -17 -8 -17 -23 -2 -9 9 -19 16 -21 16 -12 0
1 -34 16 -45 26 -18 0 -48 -38 -43 -28 3 -30 6 -28 42 2 23 -2 43 -9 47 -9 6
-9 14 0 34 17 36 15 72 -4 83 -15 8 -15 12 0 39 8 17 22 33 30 36 9 4 16 22
18 49 l3 43 49 6 c28 3 52 11 54 17 2 7 8 12 14 12 7 0 8 -17 3 -47z m-325
-280 c-1 -24 -2 -26 -11 -10 -5 9 -7 22 -4 27 10 17 15 11 15 -17z m295 -123
c3 -6 -4 -10 -17 -10 -18 0 -20 2 -8 10 19 12 18 12 25 0z"/>
<path d="M4314 4284 c-10 -41 14 -78 51 -79 21 0 31 -6 33 -19 4 -17 -1 -18
-45 -13 -49 6 -50 5 -84 -38 -19 -23 -37 -41 -41 -38 -5 2 -8 0 -8 -5 0 -5 30
-9 66 -8 62 1 67 3 99 38 34 36 34 36 56 17 12 -10 23 -19 24 -19 8 0 -9 67
-29 113 -25 54 -35 63 -74 58 -8 -1 -20 3 -27 9 -11 9 -16 6 -21 -16z m36
-159 c0 -8 -4 -15 -9 -15 -13 0 -22 16 -14 24 11 11 23 6 23 -9z"/>
<path d="M4573 4288 c-14 -18 -33 -77 -33 -102 0 -12 8 -29 19 -38 17 -15 19
-14 29 6 17 34 32 113 26 130 -7 19 -28 21 -41 4z"/>
<path d="M4714 4275 c-3 -14 -3 -33 2 -42 4 -10 7 -21 6 -24 -1 -4 7 -5 18 -2
15 4 19 13 17 43 -1 21 -5 36 -9 33 -5 -2 -8 1 -8 6 0 21 -20 10 -26 -14z"/>
<path d="M5040 4256 c0 -39 -98 -63 -107 -26 -6 22 -21 28 -20 8 0 -7 -1 -31
-2 -53 -2 -35 -3 -37 -12 -17 -10 26 -24 23 -32 -7 -6 -23 -1 -31 38 -58 27
-19 31 -19 52 -6 19 12 26 13 38 3 33 -27 81 53 66 108 -6 18 -7 40 -4 48 3 8
0 14 -6 14 -6 0 -11 -6 -11 -14z"/>
<path d="M1235 4240 c-8 -13 4 -32 16 -25 12 8 12 35 0 35 -6 0 -13 -4 -16
-10z"/>
<path d="M4088 4221 c-1 -6 -37 -11 -78 -13 -73 -3 -75 -4 -78 -30 -3 -26 -2
-26 64 -30 97 -5 146 20 124 62 -11 21 -26 26 -32 11z"/>
<path d="M4212 4195 c-1 -14 3 -25 8 -25 5 0 6 7 3 17 -5 12 -3 14 7 8 8 -5
11 -3 8 5 -8 24 -24 21 -26 -5z"/>
<path d="M1190 4199 c0 -5 5 -7 10 -4 6 3 10 8 10 11 0 2 -4 4 -10 4 -5 0 -10
-5 -10 -11z"/>
<path d="M1736 4169 c-3 -18 -6 -44 -6 -60 0 -15 -7 -34 -15 -42 -13 -13 -13
-16 1 -21 8 -3 12 -10 9 -16 -3 -5 0 -7 9 -4 10 4 13 15 9 40 -4 26 -1 40 15
57 14 16 18 28 12 43 -14 35 -27 36 -34 3z"/>
<path d="M3363 4145 c0 -14 5 -25 12 -25 8 0 11 8 8 20 -8 30 -20 33 -20 5z"/>
<path d="M4706 4155 c4 -8 10 -15 15 -15 5 0 9 7 9 15 0 8 -7 15 -15 15 -9 0
-12 -6 -9 -15z"/>
<path d="M4650 4125 c0 -16 -6 -25 -15 -25 -9 0 -15 -9 -15 -25 0 -14 -4 -25
-10 -25 -16 0 -11 -26 8 -43 17 -16 20 -15 40 13 15 19 31 30 48 30 52 0 30
54 -36 90 -17 9 -20 7 -20 -15z m20 -45 c0 -5 -2 -10 -4 -10 -3 0 -8 5 -11 10
-3 6 -1 10 4 10 6 0 11 -4 11 -10z"/>
<path d="M2804 4108 c-4 -7 -3 -10 1 -5 5 4 19 -2 31 -14 13 -12 24 -16 28
-10 4 5 2 12 -4 16 -5 3 -10 3 -10 -1 0 -4 -9 1 -19 10 -15 14 -21 15 -27 4z"/>
<path d="M4520 4100 c0 -5 5 -10 10 -10 6 0 10 5 10 10 0 6 -4 10 -10 10 -5 0
-10 -4 -10 -10z"/>
<path d="M2067 4093 c-12 -11 -8 -23 8 -23 8 0 15 7 15 15 0 16 -12 20 -23 8z"/>
<path d="M3667 4073 c-33 -17 -34 -23 -6 -18 12 3 18 1 14 -3 -3 -4 -41 -8
-83 -9 -114 -3 -165 -13 -184 -36 -23 -26 -23 -59 1 -74 13 -8 19 -24 19 -58
1 -25 4 -50 7 -55 6 -9 39 -7 67 5 27 11 38 -3 38 -49 0 -44 27 -87 52 -82 99
20 93 14 102 97 7 55 -8 104 -29 100 -5 -1 -16 -30 -24 -64 -21 -98 -43 -111
-57 -34 -5 23 -9 47 -9 54 0 6 -4 15 -8 19 -4 4 -7 23 -7 42 0 42 -19 39 -40
-6 -18 -37 -34 -36 -38 2 -5 40 23 67 67 66 72 -2 153 33 150 64 -3 25 2 35
19 38 14 3 14 5 -4 10 -11 3 -33 -1 -47 -9z"/>
<path d="M4017 4083 c-14 -13 -7 -29 13 -30 11 -1 18 2 15 8 -4 5 0 9 7 9 9 0
9 3 -2 10 -18 12 -24 12 -33 3z"/>
<path d="M4356 4072 c-3 -5 1 -9 9 -9 8 0 12 4 9 9 -3 4 -7 8 -9 8 -2 0 -6 -4
-9 -8z"/>
<path d="M3130 4063 c0 -14 19 -38 25 -32 8 8 -5 39 -16 39 -5 0 -9 -3 -9 -7z"/>
<path d="M2231 4013 c10 -65 17 -80 40 -86 24 -6 25 16 4 67 -8 20 -12 36 -8
36 8 0 -29 29 -38 30 -3 0 -3 -21 2 -47z"/>
<path d="M3290 4042 c0 -12 -14 -32 -34 -47 -34 -26 -34 -27 -20 -60 14 -34
10 -64 -10 -77 -16 -11 -26 1 -26 30 0 32 -16 60 -27 49 -4 -5 -9 -40 -10 -79
-2 -43 -11 -88 -23 -116 -36 -82 3 -117 41 -37 12 25 35 53 51 63 28 16 88 95
88 115 0 6 7 18 16 28 11 12 14 25 9 36 -5 10 -9 22 -9 26 -1 4 -6 11 -13 15
-6 4 -13 19 -15 34 -5 34 -18 49 -18 20z"/>
<path d="M5030 4039 c0 -5 -8 -9 -17 -8 -34 3 -44 -1 -72 -30 -16 -16 -36 -31
-46 -33 -10 -1 -23 -12 -29 -23 -28 -49 -86 -71 -114 -43 -15 15 -47 -16 -49
-49 -1 -18 5 -23 40 -28 23 -4 48 -12 55 -18 7 -5 36 -7 69 -4 42 4 63 12 85
34 24 23 32 26 47 16 15 -9 21 -9 29 0 13 17 24 197 12 197 -6 0 -10 -5 -10
-11z"/>
<path d="M1645 3999 c-4 -6 2 -13 14 -16 14 -4 18 -9 13 -17 -14 -17 -21 -66
-11 -72 5 -3 16 2 25 10 8 9 23 20 32 25 15 9 15 12 -6 33 -12 14 -22 30 -22
36 0 15 -36 16 -45 1z"/>
<path d="M2306 4001 c-8 -12 21 -34 34 -26 8 5 8 11 -1 21 -13 16 -25 18 -33
5z"/>
<path d="M3126 3984 c-8 -20 -4 -25 11 -16 7 4 9 13 4 21 -6 10 -10 9 -15 -5z"/>
<path d="M3713 3958 c-2 -18 0 -20 7 -8 12 18 13 30 2 30 -4 0 -9 -10 -9 -22z"/>
<path d="M931 3926 c-13 -16 -2 -29 16 -18 7 4 8 13 4 20 -6 10 -10 10 -20 -2z"/>
<path d="M1442 3910 c0 -14 2 -19 5 -12 2 6 2 18 0 25 -3 6 -5 1 -5 -13z"/>
<path d="M2200 3905 c-7 -9 -19 -14 -26 -11 -18 7 -29 -13 -15 -27 9 -9 14 -9
20 1 4 7 15 10 24 6 13 -5 17 0 17 20 0 30 -3 32 -20 11z"/>
<path d="M1585 3888 c1 -13 3 -29 4 -35 3 -29 21 -10 21 22 0 23 -5 35 -14 35
-8 0 -12 -9 -11 -22z"/>
<path d="M2308 3877 c-3 -15 0 -24 8 -24 15 0 27 24 18 38 -10 16 -22 10 -26
-14z"/>
<path d="M4265 3833 c-18 -80 -42 -113 -84 -113 -35 0 -38 -31 -8 -74 12 -17
21 -32 19 -33 -1 -2 -2 -6 -2 -10 0 -5 6 3 13 17 7 13 28 35 47 48 42 28 67
81 66 142 -1 39 -4 45 -23 48 -17 3 -24 -3 -28 -25z"/>
<path d="M4077 3836 c-19 -7 -27 -17 -27 -33 0 -13 -5 -23 -11 -23 -5 0 -7 -5
-3 -11 4 -7 24 -9 51 -6 35 4 49 1 64 -14 18 -18 19 -17 39 8 26 34 25 57 -4
77 -26 16 -65 17 -109 2z"/>
<path d="M1573 3816 c0 -11 1 -15 4 -8 3 6 9 10 14 6 5 -3 9 -1 9 4 0 21 -26
19 -27 -2z"/>
<path d="M3982 3740 c-11 -19 -10 -20 28 -20 22 0 40 -5 40 -11 0 -5 5 -7 10
-4 11 7 -2 22 -38 43 -27 15 -25 16 -40 -8z"/>
<path d="M4725 3737 c-8 -31 -2 -110 10 -141 6 -13 5 -17 -3 -12 -14 8 -29
-76 -24 -136 2 -20 31 -25 33 -5 6 51 6 273 -1 295 l-7 27 -8 -28z"/>
<path d="M3750 3730 c0 -5 5 -10 10 -10 6 0 10 5 10 10 0 6 -4 10 -10 10 -5 0
-10 -4 -10 -10z"/>
<path d="M4429 3716 c-9 -11 -24 -38 -34 -59 -20 -42 -57 -72 -79 -64 -8 3
-17 -1 -20 -9 -7 -19 6 -48 24 -53 34 -8 60 -9 60 -1 0 5 8 11 18 14 25 8 62
89 62 134 0 52 -11 65 -31 38z"/>
<path d="M4650 3709 c0 -5 5 -7 10 -4 6 3 10 8 10 11 0 2 -4 4 -10 4 -5 0 -10
-5 -10 -11z"/>
<path d="M3977 3666 c5 -26 -30 -96 -48 -96 -11 0 -12 -37 -1 -43 14 -9 77 24
96 49 10 14 18 41 18 60 0 19 4 34 10 34 5 0 7 4 3 10 -4 6 -15 5 -30 -2 -18
-8 -28 -8 -38 1 -12 9 -13 7 -10 -13z"/>
<path d="M1866 3654 c-4 -9 -4 -19 -1 -22 2 -3 7 3 11 12 4 9 4 19 1 22 -2 3
-7 -3 -11 -12z"/>
<path d="M2950 3660 c-8 -5 -10 -10 -5 -10 6 0 3 -5 -5 -10 -18 -10 -26 -80
-10 -80 5 0 13 -1 18 -2 10 -4 11 51 1 58 -5 3 -2 16 7 30 18 26 17 29 -6 14z"/>
<path d="M3583 3645 c0 -8 4 -15 9 -15 4 0 8 4 8 9 0 6 -4 12 -8 15 -5 3 -9
-1 -9 -9z"/>
<path d="M3033 3605 c-3 -32 -24 -172 -28 -187 -3 -9 -19 -19 -35 -23 -31 -7
-35 -17 -46 -109 -7 -58 -7 -59 12 -40 11 11 28 41 38 67 10 26 23 47 30 47
17 0 56 43 56 61 0 8 9 29 20 47 26 42 26 84 0 107 -12 10 -19 24 -16 30 2 6
-4 11 -13 11 -10 0 -18 -5 -18 -11z"/>
<path d="M3580 3579 c0 -5 5 -7 10 -4 6 3 10 8 10 11 0 2 -4 4 -10 4 -5 0 -10
-5 -10 -11z"/>
<path d="M1705 3550 c4 -14 7 -30 7 -37 2 -18 15 -7 21 18 3 11 3 18 0 15 -3
-3 -12 2 -20 12 -13 15 -14 15 -8 -8z"/>
<path d="M2648 3495 c-11 -21 -3 -70 12 -70 11 0 15 11 16 38 1 21 -2 33 -6
27 -6 -9 -9 -9 -12 1 -2 7 -7 9 -10 4z"/>
<path d="M3907 3473 c-3 -5 1 -14 9 -21 12 -10 14 -10 14 2 0 17 -16 30 -23
19z"/>
<path d="M853 3443 c-10 -15 -14 -16 -21 -4 -8 11 -14 9 -31 -8 -27 -27 -20
-58 17 -72 22 -9 29 -7 44 13 17 23 25 88 10 88 -4 0 -12 -8 -19 -17z"/>
<path d="M1835 3440 c3 -5 10 -10 16 -10 5 0 9 5 9 10 0 6 -7 10 -16 10 -8 0
-12 -4 -9 -10z"/>
<path d="M4210 3448 c-2 -5 -3 -11 -5 -15 -1 -5 -5 -31 -10 -59 -9 -63 -18
-79 -40 -70 -13 5 -16 15 -13 40 2 21 0 34 -7 33 -5 -1 -8 5 -7 13 2 8 0 11
-4 7 -4 -4 -9 -13 -11 -20 -15 -67 -20 -81 -30 -84 -6 -2 -17 13 -24 34 -12
36 -39 74 -39 55 0 -20 -73 -122 -92 -128 -12 -3 -31 4 -54 21 -29 22 -42 26
-69 21 -57 -11 -49 -25 17 -32 53 -6 68 -12 93 -39 17 -17 42 -39 58 -48 26
-17 27 -17 27 1 0 29 54 75 79 67 12 -3 21 -11 21 -16 0 -5 21 -8 46 -7 38 2
53 9 77 35 62 65 77 173 27 186 -11 3 -18 1 -14 -4 3 -5 1 -9 -5 -9 -5 0 -12
6 -14 13 -3 6 -6 9 -7 5z"/>
<path d="M3422 3428 c-15 -15 -15 -35 -2 -43 6 -4 10 -3 9 2 -1 4 1 16 6 26 9
22 2 30 -13 15z"/>
<path d="M2339 3405 c-16 -17 -31 -24 -42 -19 -9 3 -14 10 -11 15 3 5 1 9 -3
9 -5 0 -17 -15 -27 -32 -25 -44 -67 -88 -78 -82 -4 3 -6 -12 -3 -32 3 -26 0
-43 -12 -56 -15 -17 -15 -18 2 -18 10 0 16 3 12 6 -7 8 8 24 47 49 15 10 39
36 52 57 19 30 31 38 53 38 33 0 48 15 61 59 7 26 6 31 -8 31 -10 0 -29 -11
-43 -25z"/>
<path d="M2479 3391 c-13 -10 -28 -20 -34 -22 -5 -2 -31 -20 -58 -38 -50 -37
-53 -50 -18 -98 21 -30 30 -29 107 12 36 19 79 35 95 35 16 0 57 -13 92 -30
67 -31 89 -60 102 -134 5 -27 4 -36 -6 -38 -8 0 -25 -2 -39 -3 -96 -9 -183
-38 -223 -72 -20 -18 -43 -33 -50 -33 -7 0 -20 -8 -29 -17 -9 -10 -33 -34 -52
-53 -40 -38 -51 -67 -67 -185 -13 -95 -4 -140 33 -168 36 -27 101 -38 132 -22
64 34 174 43 246 21 25 -7 59 -11 76 -9 18 3 45 -2 63 -11 19 -11 41 -14 58
-10 58 14 68 43 32 89 -17 20 -23 43 -24 93 -2 37 -9 110 -17 162 -11 79 -11
106 -1 150 18 73 11 100 -42 180 -25 37 -45 75 -45 83 0 9 -12 24 -26 34 -14
10 -42 31 -61 48 -63 53 -197 73 -244 36z m293 -456 c43 -29 51 -55 46 -159
-3 -61 -6 -71 -30 -89 -25 -19 -32 -19 -97 -9 -68 12 -70 11 -126 -18 -68 -36
-125 -40 -155 -10 -26 26 -25 34 13 105 25 47 39 61 65 69 19 5 32 15 32 25 0
37 60 87 135 113 31 10 76 0 117 -27z"/>
<path d="M2709 2898 c-7 -30 -5 -36 10 -34 19 3 22 27 4 34 -7 2 -13 2 -14 0z"/>
<path d="M2543 2842 c-8 -22 -22 -36 -42 -43 -16 -6 -37 -21 -45 -34 -14 -22
-14 -23 12 -27 15 -3 34 -7 42 -9 22 -6 52 62 48 108 l-3 38 -12 -33z"/>
<path d="M2658 2854 c-3 -5 3 -22 13 -39 14 -22 18 -25 16 -10 -4 28 -23 59
-29 49z"/>
<path d="M1630 3340 c0 -5 5 -10 11 -10 5 0 7 5 4 10 -3 6 -8 10 -11 10 -2 0
-4 -4 -4 -10z"/>
<path d="M4820 3283 c-7 -38 -19 -84 -28 -103 -21 -51 -22 -150 0 -172 16 -16
17 -39 14 -222 -2 -113 0 -203 4 -201 7 4 29 81 65 226 9 37 15 80 14 95 -2
16 1 46 5 66 5 23 4 50 -4 73 -9 28 -9 39 1 51 7 9 13 41 14 73 0 31 6 66 13
78 21 38 15 71 -18 88 -56 29 -66 22 -80 -52z"/>
<path d="M4355 3319 c-22 -12 -47 -27 -56 -35 -8 -8 -21 -14 -27 -14 -7 0 -12
-3 -12 -7 0 -5 -28 -37 -62 -73 -68 -73 -85 -105 -88 -170 -5 -84 -3 -90 36
-106 128 -54 142 -127 32 -174 -29 -12 -64 -31 -77 -41 -13 -11 -32 -19 -41
-19 -10 0 -23 -6 -29 -14 -7 -8 -27 -17 -45 -20 -46 -9 -58 -26 -54 -78 2 -31
7 -43 19 -43 9 0 24 -8 34 -18 10 -10 24 -16 32 -13 8 3 20 6 27 6 7 0 39 27
71 59 47 48 69 62 114 75 67 19 162 84 180 123 7 15 17 36 22 45 15 29 10 69
-12 115 -21 44 -24 46 -74 44 -33 -1 -102 34 -119 61 -17 27 34 71 154 133 58
29 111 63 118 75 21 35 6 79 -34 96 -45 19 -62 18 -109 -7z"/>
<path d="M920 3289 c3 -55 1 -67 -17 -85 -16 -16 -16 -17 -1 -12 25 10 33 -24
10 -43 -14 -11 -18 -23 -15 -42 6 -29 23 -37 23 -12 0 8 5 15 10 15 6 0 10
-38 11 -92 1 -95 5 -118 26 -153 9 -16 14 -18 24 -7 16 15 33 16 23 0 -4 -7
-8 -23 -9 -36 0 -13 -9 -30 -19 -37 -14 -11 -15 -17 -7 -33 6 -12 8 -28 5 -36
-3 -9 -1 -30 5 -48 9 -26 9 -35 -1 -43 -7 -6 -18 -19 -24 -30 -8 -14 -22 -20
-48 -20 -33 -1 -36 2 -36 29 0 16 6 37 14 45 19 22 30 61 17 61 -6 0 -11 8
-11 19 0 10 -6 24 -14 30 -21 18 -10 170 15 197 24 26 24 43 -1 73 -17 20 -22
21 -36 10 -14 -11 -18 -10 -30 6 -8 10 -15 17 -15 14 -7 -21 -6 -155 1 -247 7
-85 6 -118 -3 -133 -10 -17 -9 -22 6 -33 33 -25 8 -86 -36 -86 -9 0 -17 -7
-17 -15 0 -8 -4 -15 -9 -15 -5 0 -11 -11 -13 -24 -4 -21 1 -27 39 -41 34 -13
41 -20 33 -30 -12 -15 3 -31 19 -20 11 6 17 -11 26 -76 7 -54 -10 -105 -31
-88 -17 14 -22 2 -20 -61 1 -46 4 -57 23 -64 18 -9 20 -16 16 -55 -3 -25 -9
-49 -15 -52 -17 -11 -4 -44 16 -41 14 3 16 -1 11 -17 -7 -23 13 -39 27 -20 7
11 11 11 15 2 10 -26 23 -12 23 26 0 25 5 41 15 45 23 8 19 63 -5 76 -19 10
-19 11 7 54 21 35 33 45 59 48 29 3 33 1 36 -22 2 -19 9 -26 32 -28 16 -2 32
2 37 9 4 8 11 10 15 6 4 -3 1 -13 -6 -22 -10 -13 -9 -15 9 -15 14 0 21 6 21
19 0 11 5 23 10 26 6 3 10 -2 10 -13 0 -28 36 -66 56 -58 28 11 5 142 -30 167
-5 4 -5 12 -2 18 9 15 -3 14 -34 -2 -14 -7 -41 -12 -60 -11 -22 2 -45 -5 -62
-17 -15 -10 -36 -19 -48 -19 -11 0 -20 -7 -20 -15 0 -8 -4 -15 -9 -15 -17 0
-51 67 -51 99 0 21 -5 31 -15 31 -16 0 -19 22 -9 81 4 26 14 40 30 48 32 14
70 -3 78 -35 5 -17 13 -24 31 -24 19 0 25 6 30 33 14 77 13 103 -3 127 -13 19
-17 48 -16 131 0 100 1 108 26 138 35 41 42 65 27 93 -7 13 -14 28 -15 33 0 6
-2 17 -3 25 -2 11 -5 9 -10 -5 -8 -19 -8 -19 -20 4 -10 19 -10 26 3 40 12 13
16 39 16 98 0 78 -1 81 -25 85 -14 3 -25 1 -25 -5 0 -5 -6 -4 -14 2 -8 6 -20
10 -27 9 -8 -2 -13 3 -11 10 1 6 -2 12 -8 12 -5 0 -10 18 -10 39 0 22 -5 43
-11 47 -7 4 -10 -5 -9 -27z m80 -141 c0 -10 9 -28 20 -40 24 -26 25 -41 5 -58
-8 -7 -15 -25 -15 -41 0 -16 -4 -29 -10 -29 -5 0 -10 11 -10 24 0 13 -7 27
-15 30 -12 4 -15 20 -13 74 3 60 5 68 20 64 10 -2 18 -13 18 -24z m54 -211 c8
-12 7 -21 -6 -33 -20 -20 -38 -11 -38 20 0 39 23 46 44 13z m-34 -161 c0 -2
-7 -6 -15 -10 -8 -3 -15 -1 -15 4 0 6 7 10 15 10 8 0 15 -2 15 -4z"/>
<path d="M1530 3282 c-22 -18 -23 -22 -12 -47 15 -31 9 -55 -25 -107 -24 -36
-24 -39 -15 -130 6 -51 17 -120 25 -153 9 -33 20 -121 25 -195 7 -86 16 -146
26 -165 9 -16 16 -37 16 -46 0 -10 11 -19 26 -22 26 -5 27 -3 49 60 2 7 19 14
37 17 18 3 69 10 112 16 44 7 89 18 100 25 12 7 48 20 81 30 103 29 114 36
172 102 l56 64 9 151 c8 135 7 157 -8 193 -22 50 -69 102 -101 110 -13 3 -27
15 -32 27 -7 18 -23 25 -107 40 -54 10 -121 23 -149 29 -27 6 -97 13 -155 16
-95 4 -108 3 -130 -15z m217 -77 c19 -8 47 -15 62 -15 38 0 112 -24 125 -41 6
-8 38 -38 72 -67 67 -58 79 -82 90 -193 l6 -66 -44 -31 c-24 -17 -50 -37 -57
-46 -24 -29 -197 -102 -267 -113 -60 -9 -62 2 -57 234 4 168 2 219 -11 266 -8
32 -13 64 -9 72 7 19 44 19 90 0z"/>
<path d="M1680 3180 c0 -5 9 -34 21 -64 l20 -56 22 21 c16 15 30 19 51 15 16
-3 32 -6 35 -6 4 0 7 -17 8 -37 0 -50 7 -76 21 -81 15 -5 24 33 18 76 -4 20
-2 51 3 69 8 26 6 32 -10 36 -10 3 -23 -1 -29 -8 -6 -7 -22 -15 -36 -18 -21
-4 -30 1 -43 24 -14 26 -37 39 -68 39 -7 0 -13 -4 -13 -10z"/>
<path d="M1932 3052 c-21 -21 -39 -129 -24 -144 5 -5 14 3 22 17 16 30 30 32
30 5 0 -29 25 -25 28 5 1 14 -3 25 -8 25 -6 0 -10 18 -10 39 0 22 -5 43 -10
46 -6 4 -8 11 -5 16 10 15 -4 10 -23 -9z"/>
<path d="M2040 2990 c-1 -14 -3 -36 -4 -50 -3 -27 22 -90 36 -90 10 0 0 68
-18 125 -10 33 -12 36 -14 15z"/>
<path d="M1700 2885 c0 -8 4 -15 10 -15 5 0 7 7 4 15 -4 8 -8 15 -10 15 -2 0
-4 -7 -4 -15z"/>
<path d="M1966 2885 c-11 -29 -7 -55 9 -55 16 0 20 36 6 58 -7 11 -10 10 -15
-3z"/>
<path d="M1700 2850 c0 -5 5 -10 11 -10 5 0 7 5 4 10 -3 6 -8 10 -11 10 -2 0
-4 -4 -4 -10z"/>
<path d="M1862 2776 c-9 -20 -8 -24 6 -22 19 3 28 31 14 40 -5 3 -14 -5 -20
-18z"/>
<path d="M1781 2743 c1 -4 0 -10 -1 -13 -1 -3 -4 -18 -6 -33 -3 -20 -1 -27 6
-22 6 4 9 9 6 12 -2 3 -1 16 4 29 6 14 6 26 -1 29 -5 4 -9 3 -8 -2z"/>
<path d="M2836 3282 c-2 -4 -1 -14 5 -22 7 -12 9 -10 9 8 0 23 -5 28 -14 14z"/>
<path d="M3433 3263 c0 -15 -3 -50 -8 -76 -9 -59 5 -81 29 -45 12 19 14 37 8
83 -7 60 -30 89 -29 38z"/>
<path d="M1166 3264 c-11 -10 -16 -30 -15 -53 1 -20 -4 -53 -11 -74 -11 -30
-12 -42 -2 -57 10 -17 9 -22 -7 -32 -15 -9 -17 -16 -9 -25 10 -13 7 -53 -7
-85 -5 -14 0 -20 20 -28 26 -10 27 -12 11 -29 -22 -24 -22 -109 0 -118 10 -4
14 -13 10 -29 -3 -12 -3 -29 0 -38 8 -20 34 -9 34 15 0 10 5 19 10 19 6 0 8
10 5 23 -7 27 12 47 44 50 12 1 21 7 21 14 0 6 7 16 15 20 12 7 11 16 -10 58
-18 37 -24 44 -25 27 0 -24 -21 -52 -38 -52 -5 0 -16 7 -23 16 -11 13 -10 18
8 32 23 19 36 59 22 68 -5 3 -9 38 -8 77 1 62 -16 205 -25 215 -2 1 -11 -4
-20 -14z"/>
<path d="M815 3260 c-4 -7 -2 -16 6 -21 17 -11 -6 -32 -63 -57 -21 -9 -38 -20
-38 -23 0 -9 56 -35 94 -45 33 -8 46 6 46 52 0 39 -34 112 -45 94z"/>
<path d="M1259 3244 c-18 -22 -20 -66 -4 -90 21 -32 19 -54 -5 -54 -28 0 -26
-36 2 -43 13 -4 32 2 49 14 15 10 36 19 46 19 19 0 53 29 53 45 0 4 -15 5 -33
2 -19 -3 -40 -2 -47 3 -20 13 -16 68 6 84 10 8 16 17 12 21 -12 12 -68 11 -79
-1z"/>
<path d="M3265 3220 c-21 -16 -41 -30 -46 -30 -5 0 -24 -16 -43 -35 -20 -19
-40 -35 -45 -35 -6 0 -20 14 -33 30 -27 37 -43 38 -62 3 -11 -23 -13 -77 -10
-279 3 -236 4 -253 24 -288 27 -45 61 -49 79 -9 21 46 24 155 5 203 -23 58
-15 144 20 199 15 23 33 44 41 48 8 3 15 11 15 19 0 15 67 94 80 94 18 0 80
46 85 63 18 51 -53 62 -110 17z"/>
<path d="M3593 3234 c-66 -24 -139 -114 -158 -195 -18 -79 -19 -235 -1 -311
32 -133 129 -218 248 -218 31 0 47 8 83 41 76 70 60 108 -54 128 -39 7 -73 17
-77 22 -3 5 -16 9 -29 9 -29 0 -85 62 -85 95 0 39 29 163 45 195 8 15 36 46
61 67 l47 38 113 0 c134 1 143 6 125 65 -12 42 -42 69 -76 69 -11 1 -60 3
-110 6 -66 3 -101 1 -132 -11z"/>
<path d="M2606 3203 c-9 -19 -25 -37 -35 -40 -19 -5 -22 -18 -8 -40 25 -40
111 20 105 72 -2 17 -11 31 -24 36 -18 6 -24 1 -38 -28z"/>
<path d="M2515 3210 c-3 -5 0 -19 8 -31 11 -14 16 -17 19 -7 11 31 -12 62 -27
38z"/>
<path d="M4384 3125 c-12 -9 -14 -14 -6 -15 7 0 20 7 28 15 20 19 4 20 -22 0z"/>
<path d="M2320 3118 c0 -2 -7 -24 -15 -50 -11 -39 -11 -48 -1 -48 7 0 18 11
24 25 15 32 16 75 2 75 -5 0 -10 -1 -10 -2z"/>
<path d="M2981 3094 c0 -11 3 -14 6 -6 3 7 2 16 -1 19 -3 4 -6 -2 -5 -13z"/>
<path d="M2240 3004 c0 -68 7 -80 16 -28 3 16 9 33 14 39 5 6 0 20 -11 34
l-19 23 0 -68z"/>
<path d="M2968 3006 c-23 -47 -25 -56 -12 -66 29 -25 44 -4 44 60 0 33 -1 60
-2 60 -2 0 -15 -25 -30 -54z"/>
<path d="M3814 3014 c-37 -46 -76 -124 -63 -124 5 0 9 4 9 8 0 4 12 12 28 18
34 13 71 80 63 113 -6 24 -7 24 -37 -15z"/>
<path d="M4265 3030 c-3 -6 6 -15 20 -20 37 -14 40 -13 20 10 -20 22 -31 25
-40 10z"/>
<path d="M1405 3017 c12 -10 15 -19 9 -28 -11 -19 -13 -58 -2 -65 4 -3 8 -18
8 -35 0 -29 6 -34 33 -23 11 4 13 17 9 52 -2 26 -8 51 -13 57 -5 5 -9 19 -9
32 0 18 -5 23 -27 23 -25 0 -26 -1 -8 -13z"/>
<path d="M3212 3008 c-7 -7 -12 -18 -12 -25 0 -18 29 -16 37 3 8 21 -10 37
-25 22z"/>
<path d="M1310 3000 c-9 -6 -10 -10 -3 -10 6 0 15 5 18 10 8 12 4 12 -15 0z"/>
<path d="M4650 2975 c0 -8 0 -17 0 -20 0 -3 2 -5 5 -5 3 0 5 3 4 6 0 4 5 10
11 14 8 5 7 9 -4 13 -10 4 -16 1 -16 -8z"/>
<path d="M1290 2973 c0 -10 19 -40 21 -33 0 3 2 13 4 23 2 9 -3 17 -11 17 -8
0 -14 -3 -14 -7z"/>
<path d="M2325 2970 c-3 -5 -1 -10 4 -10 6 0 11 5 11 10 0 6 -2 10 -4 10 -3 0
-8 -4 -11 -10z"/>
<path d="M3567 2882 c-10 -10 -17 -34 -17 -53 0 -33 0 -33 20 -14 21 22 39 85
23 85 -6 0 -17 -8 -26 -18z"/>
<path d="M3371 2865 c-18 -49 -26 -59 -57 -73 -31 -15 -64 -61 -64 -92 0 -10
10 -22 22 -25 17 -6 28 1 54 31 18 22 36 48 39 59 4 11 14 34 23 52 12 24 13
37 5 55 l-11 23 -11 -30z"/>
<path d="M3670 2883 c0 -1 9 -7 20 -13 15 -8 20 -8 20 3 0 7 -9 13 -20 13 -11
0 -20 -1 -20 -3z"/>
<path d="M4075 2874 c-7 -3 -9 -29 -7 -67 4 -59 2 -63 -27 -89 -17 -16 -35
-28 -41 -28 -5 0 -10 -4 -10 -10 0 -15 16 -12 30 4 6 8 27 20 46 26 23 8 34
18 34 31 0 20 4 23 52 33 15 3 39 17 54 30 l28 23 -25 15 c-13 9 -41 19 -62
22 -21 4 -44 9 -50 11 -7 2 -17 1 -22 -1z"/>
<path d="M1375 2850 c3 -5 8 -10 11 -10 2 0 4 5 4 10 0 6 -5 10 -11 10 -5 0
-7 -4 -4 -10z"/>
<path d="M2234 2835 c-4 -16 -2 -31 6 -38 10 -9 11 -9 6 1 -4 6 -2 12 3 12 14
0 14 37 1 45 -5 3 -12 -6 -16 -20z"/>
<path d="M3876 2823 c-3 -3 -6 -19 -6 -34 0 -21 4 -27 15 -23 8 4 15 17 15 29
0 25 -12 39 -24 28z"/>
<path d="M2225 2743 c-4 -21 -10 -40 -13 -43 -4 -3 -22 -22 -41 -42 -27 -29
-32 -40 -23 -51 7 -8 9 -17 5 -21 -4 -4 0 -4 10 0 10 3 17 1 17 -5 0 -9 -19
-15 -41 -13 -3 1 -6 -6 -6 -14 0 -7 4 -14 8 -14 5 0 7 -13 6 -30 -2 -23 -7
-30 -23 -30 -12 0 -41 -9 -64 -19 -24 -11 -48 -18 -54 -17 -6 2 -7 1 -3 -2 4
-2 5 -18 2 -36 -5 -24 -2 -36 11 -47 13 -11 18 -11 21 -1 3 8 10 6 21 -7 23
-27 50 -29 94 -8 28 13 39 27 52 64 17 49 13 69 -8 41 -12 -16 -14 -16 -24 7
-12 27 -10 29 32 39 17 4 42 16 57 27 24 17 27 24 19 44 -5 13 -11 46 -13 74
-2 28 -6 54 -9 57 -3 3 -4 23 -1 45 4 31 2 39 -10 39 -9 0 -17 -14 -22 -37z"/>
<path d="M1452 2739 c2 -7 10 -15 17 -17 8 -3 12 1 9 9 -2 7 -10 15 -17 17 -8
3 -12 -1 -9 -9z"/>
<path d="M4385 2694 c-33 -30 -68 -57 -77 -60 -36 -11 -19 -30 22 -26 30 3 47
-1 63 -14 12 -10 19 -15 15 -10 -4 5 -4 14 1 20 10 12 44 136 39 141 -2 2 -30
-21 -63 -51z"/>
<path d="M1250 2728 c0 -4 4 -8 9 -8 6 0 12 4 15 8 3 5 -1 9 -9 9 -8 0 -15 -4
-15 -9z"/>
<path d="M3797 2717 c-13 -20 -12 -24 9 -40 23 -17 24 -17 30 8 7 28 0 55 -15
55 -5 0 -15 -10 -24 -23z"/>
<path d="M1238 2703 c-26 -7 -22 -32 15 -93 31 -52 41 -58 76 -49 10 3 19 -12
28 -43 12 -40 18 -48 37 -48 20 0 25 6 28 34 3 30 0 36 -19 41 -17 4 -23 13
-23 34 0 15 -9 40 -20 54 -18 23 -24 25 -51 15 -36 -12 -48 -4 -51 35 -1 15
-3 26 -3 26 0 -1 -8 -3 -17 -6z"/>
<path d="M1450 2703 c-8 -2 -23 -15 -33 -28 -17 -24 -17 -25 8 -31 31 -8 55
10 55 42 0 24 -2 25 -30 17z"/>
<path d="M1340 2691 c0 -5 5 -13 10 -16 6 -3 10 -2 10 4 0 5 -4 13 -10 16 -5
3 -10 2 -10 -4z"/>
<path d="M3347 2623 c9 -25 17 -29 68 -32 48 -2 51 0 35 30 -8 15 -21 19 -60
19 -43 0 -49 -2 -43 -17z"/>
<path d="M3170 2612 c0 -5 9 -12 21 -15 13 -3 19 -1 16 6 -5 15 -37 22 -37 9z"/>
<path d="M1441 2563 c-1 -46 1 -52 21 -55 14 -2 31 -18 45 -43 21 -38 23 -39
23 -13 0 15 -4 30 -10 33 -5 3 -10 18 -10 33 0 17 -8 32 -20 40 -12 7 -18 17
-15 22 3 6 0 10 -9 10 -8 0 -17 6 -19 13 -3 6 -6 -11 -6 -40z"/>
<path d="M3270 2588 c-16 -6 -20 -12 -12 -15 19 -7 82 6 82 17 0 13 -38 12
-70 -2z"/>
<path d="M3814 2562 c-24 -31 -29 -45 -28 -87 3 -72 6 -84 21 -78 7 3 13 20
13 37 0 44 16 56 72 56 l48 0 -20 20 c-11 11 -20 28 -20 39 0 10 -6 23 -12 28
-31 24 -45 20 -74 -15z"/>
<path d="M1129 2571 c-27 -31 -30 -72 -5 -92 l21 -17 -26 -7 c-21 -5 -28 -14
-33 -43 -3 -20 -3 -38 -1 -41 7 -7 45 31 45 45 0 7 14 22 30 34 26 19 30 28
30 69 0 67 -27 89 -61 52z"/>
<path d="M3434 2546 c-28 -21 -24 -114 7 -156 13 -16 26 -27 30 -23 9 10 -1
193 -10 193 -4 0 -16 -6 -27 -14z"/>
<path d="M2610 2516 c0 -33 16 -42 29 -17 16 29 13 41 -9 41 -15 0 -20 -7 -20
-24z"/>
<path d="M4190 2505 c-19 -14 -41 -25 -51 -25 -11 0 -20 -14 -28 -45 -6 -24
-18 -48 -27 -53 -8 -5 -21 -20 -28 -33 -9 -19 -20 -24 -47 -24 -37 0 -73 -21
-63 -36 3 -5 21 -16 40 -24 19 -8 34 -18 34 -23 0 -5 13 -7 29 -4 26 4 30 1
36 -30 12 -60 15 -66 40 -71 27 -5 30 2 25 63 -1 19 -9 47 -17 61 -21 36 -11
70 36 119 42 44 79 126 64 141 -5 5 -22 -1 -43 -16z"/>
<path d="M1911 2495 c-16 -45 -27 -60 -44 -63 -13 -3 -15 3 -10 34 5 33 4 37
-11 31 -10 -4 -21 -7 -26 -7 -5 0 -10 -17 -12 -37 -3 -35 -6 -38 -35 -41 -21
-2 -33 -9 -33 -18 0 -10 -13 -14 -49 -14 -46 0 -51 -3 -65 -32 -26 -51 -17
-151 9 -108 4 6 22 8 43 4 20 -4 34 -3 29 1 -11 12 33 55 56 55 11 0 35 10 54
21 41 26 49 20 33 -23 -14 -37 -29 -168 -20 -168 3 0 14 6 24 13 15 11 16 17
5 39 -10 23 -9 30 10 54 11 15 21 34 21 43 1 17 23 51 34 51 3 0 6 -6 6 -14 0
-19 22 -26 36 -11 6 6 15 30 19 53 6 36 2 49 -29 104 l-35 62 -10 -29z"/>
<path d="M2483 2508 c-13 -6 -23 -18 -23 -27 0 -27 44 -101 60 -101 22 1 53
27 41 35 -18 11 -13 38 5 31 12 -5 15 -2 10 10 -3 9 -9 27 -12 40 -6 25 -24
34 -24 12 0 -9 -3 -9 -12 0 -14 14 -16 14 -45 0z"/>
<path d="M4278 2513 c-6 -29 -2 -60 7 -60 7 0 12 15 12 34 0 18 -4 33 -9 33
-4 0 -9 -3 -10 -7z"/>
<path d="M4763 2467 c-58 -87 -95 -181 -104 -261 -15 -144 -38 -310 -45 -334
-5 -17 -3 -21 9 -17 8 4 24 34 35 68 23 68 92 354 92 381 0 9 6 29 14 45 12
22 31 151 23 151 -1 0 -12 -15 -24 -33z"/>
<path d="M2751 2454 c0 -11 3 -14 6 -6 3 7 2 16 -1 19 -3 4 -6 -2 -5 -13z"/>
<path d="M1206 2443 c-9 -10 -7 -43 3 -43 11 0 21 39 11 45 -4 2 -10 2 -14 -2z"/>
<path d="M1410 2435 c0 -8 7 -15 15 -15 8 0 15 4 15 9 0 5 -7 11 -15 15 -9 3
-15 0 -15 -9z"/>
<path d="M2590 2430 c0 -6 7 -10 16 -10 15 0 15 -3 -1 -26 -9 -15 -21 -40 -26
-56 -7 -25 -5 -31 11 -35 11 -3 22 -14 25 -24 7 -22 28 -25 44 -6 10 13 11
155 1 158 -30 7 -70 7 -70 -1z"/>
<path d="M2910 2426 c0 -9 30 -14 35 -6 4 6 -3 10 -14 10 -12 0 -21 -2 -21 -4z"/>
<path d="M3577 2406 c-4 -10 -7 -25 -7 -34 0 -10 -12 -34 -26 -55 -16 -24 -23
-45 -19 -57 14 -43 48 -6 64 67 11 54 2 115 -12 79z"/>
<path d="M4230 2415 c0 -2 6 -8 13 -14 10 -8 14 -7 14 2 0 8 -6 14 -14 14 -7
0 -13 -1 -13 -2z"/>
<path d="M2790 2355 c0 -42 2 -46 16 -35 18 15 15 71 -3 78 -9 2 -13 -10 -13
-43z"/>
<path d="M2364 2353 c3 -21 6 -50 6 -65 0 -15 6 -33 14 -40 20 -19 -26 -84
-71 -99 -40 -13 -44 -46 -4 -41 31 5 73 -6 66 -18 -3 -5 -1 -11 4 -14 5 -4 8
2 7 11 -2 10 3 27 10 38 9 14 13 47 11 98 -2 44 1 77 7 77 5 0 6 3 3 7 -4 3
-1 13 5 22 7 9 8 13 4 9 -5 -5 -17 6 -27 22 -26 43 -43 39 -35 -7z"/>
<path d="M3068 2372 c-8 -30 8 -50 17 -22 4 12 3 26 -3 32 -6 6 -11 2 -14 -10z"/>
<path d="M2488 2356 c-10 -7 -15 -16 -12 -19 3 -3 -1 -41 -9 -84 -8 -43 -15
-96 -14 -118 0 -22 -6 -85 -13 -140 -12 -84 -18 -105 -42 -133 -35 -41 -36
-58 0 -57 22 0 28 -5 30 -27 2 -16 -2 -28 -8 -28 -6 0 -9 -4 -6 -9 3 -5 1 -23
-5 -40 -11 -31 -52 -61 -83 -61 -9 0 -23 -11 -32 -25 -9 -14 -26 -25 -39 -25
-18 0 -68 -38 -54 -41 26 -5 49 -4 49 3 0 4 16 8 35 8 23 0 35 5 35 14 0 25
25 37 54 26 26 -9 26 -10 20 -92 -5 -71 -11 -91 -41 -140 -31 -53 -33 -59 -19
-74 20 -19 20 -15 -1 -83 -21 -68 -18 -64 -46 -66 -17 -1 -23 -9 -25 -33 -3
-29 -7 -32 -36 -32 -38 0 -51 -12 -61 -55 -13 -56 -38 -115 -49 -115 -6 0 -17
-9 -24 -20 -24 -40 -51 -16 -52 46 0 28 -27 39 -35 15 -8 -26 -4 -137 6 -152
7 -11 11 -10 22 5 17 23 51 17 55 -9 7 -41 12 -49 24 -37 15 15 55 16 63 2 11
-18 45 -11 45 8 0 10 3 22 8 26 4 4 8 22 9 39 3 53 15 101 32 126 l15 24 6
-24 c5 -19 11 -23 34 -21 l28 4 -6 -49 c-11 -77 -8 -116 11 -158 9 -22 18 -53
20 -70 2 -16 12 -42 23 -57 11 -15 25 -40 30 -54 6 -15 13 -24 16 -22 3 3 7
50 9 105 2 61 10 116 20 141 12 28 15 53 10 75 -12 56 -17 158 -10 204 5 37 9
42 21 32 12 -10 17 -9 27 5 7 10 19 16 27 14 8 -2 17 10 23 30 9 30 27 45 27
22 0 -5 19 -11 43 -11 23 -1 34 -3 25 -6 -19 -5 -13 -33 6 -33 15 0 36 -64 36
-111 0 -33 32 -107 51 -120 15 -9 13 -78 -3 -96 -17 -21 -15 -101 3 -135 9
-16 9 -23 0 -26 -25 -8 -9 -30 27 -35 47 -6 55 1 71 62 13 52 7 198 -9 215 -4
4 -6 23 -3 40 3 18 -1 54 -9 81 -9 32 -12 63 -7 84 13 61 -11 143 -32 109 -14
-22 -27 3 -22 42 5 33 3 40 -12 40 -9 0 -25 -10 -36 -22 l-19 -23 -20 23 c-17
21 -24 23 -80 16 -57 -6 -61 -8 -67 -36 -4 -18 -10 -27 -19 -24 -7 3 -11 0 -9
-7 2 -7 6 -27 9 -44 l4 -33 -41 6 c-23 4 -48 11 -54 16 -15 12 -10 123 6 141
15 19 32 133 30 202 -2 45 5 88 22 140 23 73 39 96 39 55 0 -11 5 -20 10 -20
6 0 10 9 10 19 0 11 14 31 31 44 28 22 30 28 23 58 -4 19 -8 43 -8 54 -1 14
-9 21 -30 23 -28 3 -28 3 -21 -38 6 -37 5 -41 -11 -38 -22 4 -31 43 -14 63 6
8 11 54 12 112 0 92 18 173 38 173 11 0 22 -80 25 -176 2 -86 8 -104 31 -104
8 0 14 -4 14 -10 0 -5 7 -7 15 -4 8 3 13 11 12 17 -1 6 8 16 20 22 13 7 21 14
19 16 -3 3 -6 25 -7 51 -2 33 -6 45 -16 41 -16 -6 -20 6 -27 89 -4 48 -1 71 8
80 21 22 9 70 -23 88 -18 9 -22 6 -36 -20 -15 -28 -45 -42 -45 -20 0 6 -11 15
-24 20 -23 8 -24 12 -14 46 10 36 4 99 -10 108 -4 2 -15 -1 -24 -8z"/>
<path d="M4452 2358 c-12 -16 -42 -119 -42 -147 0 -27 18 -27 42 1 13 15 18
35 17 62 -1 23 1 53 5 69 9 28 -4 37 -22 15z"/>
<path d="M3980 2348 c0 -4 7 -8 15 -8 8 0 15 4 15 8 0 5 -7 9 -15 9 -8 0 -15
-4 -15 -9z"/>
<path d="M2275 2342 c-14 -10 -39 -55 -26 -47 6 3 11 -1 11 -11 0 -19 13 -11
16 10 1 7 5 23 9 35 7 23 5 25 -10 13z"/>
<path d="M1397 2302 c-21 -24 -21 -29 1 -34 15 -4 18 -14 16 -46 -2 -42 18
-64 40 -42 7 7 6 10 -2 10 -9 0 -11 10 -6 35 6 32 -12 95 -27 95 -3 0 -13 -8
-22 -18z"/>
<path d="M2740 2278 c0 -19 2 -20 10 -8 13 19 13 30 0 30 -5 0 -10 -10 -10
-22z"/>
<path d="M1240 2285 c0 -4 7 -20 16 -37 10 -19 16 -53 15 -85 l-1 -53 35 0 34
0 -14 48 c-8 26 -15 50 -15 54 0 4 -8 9 -19 13 -10 3 -18 11 -18 18 1 33 -4
47 -18 47 -8 0 -15 -2 -15 -5z"/>
<path d="M1932 2271 c-12 -7 -30 -101 -19 -101 3 0 14 15 26 33 26 42 22 86
-7 68z"/>
<path d="M3140 2236 c-7 -25 -10 -55 -7 -66 3 -11 0 -20 -6 -20 -6 0 -7 -3 -4
-6 9 -10 36 15 53 48 14 27 13 32 -4 59 l-19 31 -13 -46z"/>
<path d="M3472 2244 c-1 -20 2 -33 7 -30 15 9 20 45 7 55 -8 7 -12 -1 -14 -25z"/>
<path d="M2785 2253 c2 -10 4 -20 4 -23 1 -3 5 2 10 10 10 15 6 30 -9 30 -4 0
-7 -8 -5 -17z"/>
<path d="M2044 2236 c-12 -11 -26 -31 -33 -44 -7 -12 -16 -20 -22 -17 -5 4 -9
2 -9 -4 0 -5 4 -13 10 -16 5 -3 9 -23 8 -43 -1 -49 12 -122 22 -122 11 0 30
57 30 90 0 31 27 90 41 90 6 0 7 9 3 23 -4 12 -7 28 -7 35 0 6 -4 12 -9 12 -5
0 -6 5 -3 10 11 17 -9 9 -31 -14z"/>
<path d="M2175 2234 c1 -14 8 -30 16 -35 8 -5 10 -9 4 -9 -5 0 -3 -4 5 -9 8
-6 18 -7 23 -4 11 7 -12 33 -32 34 -9 0 -11 3 -5 5 7 3 10 14 7 24 -8 29 -19
24 -18 -6z"/>
<path d="M1757 2229 c-9 -6 -26 -7 -37 -4 -18 6 -18 4 4 -35 13 -23 33 -48 45
-56 20 -15 21 -14 20 28 -1 61 -10 79 -32 67z"/>
<path d="M3210 2210 c0 -40 19 -79 21 -45 2 33 -2 60 -12 70 -5 5 -9 -4 -9
-25z"/>
<path d="M3403 2225 c0 -8 4 -15 9 -15 4 0 8 4 8 9 0 6 -4 12 -8 15 -5 3 -9
-1 -9 -9z"/>
<path d="M2772 2223 c1 -4 -3 -18 -10 -30 -13 -23 -1 -40 18 -28 13 8 13 52 0
60 -6 4 -9 3 -8 -2z"/>
<path d="M3935 2220 c-8 -13 -1 -24 14 -19 6 3 7 10 2 18 -6 10 -10 10 -16 1z"/>
<path d="M4257 2202 c8 -5 9 -13 3 -22 -7 -11 -10 -12 -10 -2 0 7 -5 10 -11 6
-8 -4 -7 -9 2 -15 15 -9 39 7 39 27 0 8 -8 14 -17 14 -12 0 -14 -3 -6 -8z"/>
<path d="M2987 2150 c-3 -11 -1 -18 4 -14 5 3 9 -5 9 -18 1 -21 2 -21 11 -5 7
13 7 22 0 31 -6 7 -8 16 -4 19 3 4 2 7 -4 7 -6 0 -13 -9 -16 -20z"/>
<path d="M3814 2145 c-3 -14 -11 -25 -18 -25 -6 0 -5 -4 3 -9 15 -10 71 5 71
19 0 43 -46 55 -56 15z"/>
<path d="M4315 2150 c-19 -21 -50 -27 -60 -10 -8 12 -16 12 -34 1 -25 -16 -4
-66 35 -84 47 -23 48 -22 89 20 26 26 35 44 33 63 -4 32 -38 38 -63 10z"/>
<path d="M4435 2160 c3 -5 8 -10 11 -10 2 0 4 5 4 10 0 6 -5 10 -11 10 -5 0
-7 -4 -4 -10z"/>
<path d="M4501 2161 c-9 -6 -10 -11 -2 -15 6 -4 8 -13 5 -19 -5 -9 -4 -9 5 -1
17 16 10 46 -8 35z"/>
<path d="M1549 2156 c-7 -8 -5 -57 2 -62 6 -3 10 0 8 7 -3 25 1 40 9 35 5 -3
9 1 9 8 0 9 -22 19 -28 12z"/>
<path d="M1680 2150 c0 -5 5 -10 10 -10 6 0 10 5 10 10 0 6 -4 10 -10 10 -5 0
-10 -4 -10 -10z"/>
<path d="M2730 2139 c0 -5 5 -7 10 -4 6 3 10 8 10 11 0 2 -4 4 -10 4 -5 0 -10
-5 -10 -11z"/>
<path d="M3700 2135 c-15 -18 -41 -20 -58 -3 -15 15 -25 4 -28 -31 -2 -25 3
-30 36 -41 62 -20 110 23 77 70 -13 18 -16 19 -27 5z"/>
<path d="M4160 2139 c0 -5 5 -7 10 -4 6 3 10 8 10 11 0 2 -4 4 -10 4 -5 0 -10
-5 -10 -11z"/>
<path d="M1830 2122 c-8 -2 -22 -12 -31 -21 -18 -19 -33 -55 -19 -46 5 3 17
-7 27 -22 28 -44 55 -62 92 -63 25 0 32 -4 27 -15 -12 -33 15 -13 34 25 26 51
16 120 -19 120 -11 0 -13 -3 -4 -8 18 -11 -12 -52 -37 -52 -23 0 -55 44 -47
65 7 17 -2 24 -23 17z"/>
<path d="M3306 2105 c4 -8 10 -15 15 -15 4 0 6 7 3 15 -4 8 -10 15 -15 15 -4
0 -6 -7 -3 -15z"/>
<path d="M1256 2093 c-13 -13 -6 -53 10 -53 24 0 46 26 31 37 -23 18 -34 22
-41 16z"/>
<path d="M1653 2092 c-33 -22 -32 -89 1 -76 10 4 12 -2 9 -20 -3 -14 -8 -24
-12 -22 -4 3 -5 -10 -3 -27 5 -42 -13 -88 -37 -94 -24 -6 -22 -56 3 -61 9 -2
16 -7 16 -12 0 -4 16 -11 36 -15 30 -5 39 -13 53 -46 16 -40 33 -54 24 -20 -3
10 0 22 6 25 6 4 11 32 11 62 0 30 5 54 10 54 6 0 10 18 10 40 0 39 -1 40 -26
34 l-27 -7 5 65 5 64 -37 31 c-20 17 -41 28 -47 25z"/>
<path d="M1462 2064 c9 -9 21 -13 27 -9 16 10 3 25 -22 25 -20 0 -20 -1 -5
-16z"/>
<path d="M3297 2066 c-4 -10 -1 -13 9 -9 7 3 14 9 14 14 0 14 -17 10 -23 -5z"/>
<path d="M2181 2038 c5 -10 12 -18 15 -18 3 0 2 5 -2 11 -3 6 0 15 7 20 10 6
8 8 -8 6 -17 -1 -20 -5 -12 -19z"/>
<path d="M2840 2006 c-6 -19 -31 -55 -56 -80 -49 -50 -54 -76 -30 -156 13 -46
35 -61 53 -38 20 24 43 121 43 179 0 32 5 61 10 64 13 8 13 52 1 60 -5 3 -15
-10 -21 -29z"/>
<path d="M2940 2025 c0 -8 2 -15 4 -15 2 0 6 7 10 15 3 8 1 15 -4 15 -6 0 -10
-7 -10 -15z"/>
<path d="M755 2020 c-4 -6 -14 -9 -23 -6 -23 7 -56 -19 -49 -39 7 -17 42 -21
52 -5 3 6 17 10 31 10 19 0 24 5 24 25 0 25 -23 35 -35 15z"/>
<path d="M2927 1999 c7 -7 15 -10 18 -7 3 3 -2 9 -12 12 -14 6 -15 5 -6 -5z"/>
<path d="M3130 1988 c0 -46 -12 -68 -35 -68 -13 0 -25 4 -27 9 -1 4 -11 0 -21
-9 -16 -16 -16 -18 9 -44 36 -35 70 -43 93 -22 28 26 34 73 14 117 -20 43 -33
50 -33 17z"/>
<path d="M2315 1989 c-3 -4 2 -6 10 -5 21 3 28 13 10 13 -9 0 -18 -4 -20 -8z"/>
<path d="M1094 1974 c3 -9 6 -18 6 -20 0 -2 7 -4 15 -4 18 0 19 12 3 28 -17
17 -31 15 -24 -4z"/>
<path d="M2153 1964 c-9 -23 11 -79 27 -79 10 0 16 12 18 33 5 48 -30 84 -45
46z"/>
<path d="M2920 1970 c0 -5 5 -10 11 -10 5 0 7 5 4 10 -3 6 -8 10 -11 10 -2 0
-4 -4 -4 -10z"/>
<path d="M2265 1931 c-3 -5 -1 -12 5 -16 5 -3 10 1 10 9 0 18 -6 21 -15 7z"/>
<path d="M4277 1934 c-7 -7 13 -54 24 -54 4 0 7 9 6 19 0 11 -6 19 -12 18 -5
-1 -9 4 -7 11 2 13 -1 15 -11 6z"/>
<path d="M1445 1910 c-3 -6 1 -13 9 -16 21 -8 49 3 41 16 -8 13 -42 13 -50 0z"/>
<path d="M3906 1905 c4 -8 11 -15 16 -15 6 0 5 6 -2 15 -7 8 -14 15 -16 15 -2
0 -1 -7 2 -15z"/>
<path d="M1365 1903 c-37 -6 -55 -20 -55 -44 0 -14 7 -19 29 -19 16 0 31 6 35
15 3 8 17 15 31 15 18 0 25 5 25 20 0 20 -5 21 -65 13z"/>
<path d="M3975 1888 c-11 -6 -32 -24 -47 -40 -14 -15 -35 -28 -47 -28 -21 0
-28 -23 -13 -46 9 -15 50 -20 78 -11 20 7 74 76 74 95 0 4 -6 16 -12 25 -11
13 -17 14 -33 5z"/>
<path d="M1822 1819 c6 -78 19 -104 37 -71 6 11 13 31 15 44 4 28 -22 85 -42
93 -12 5 -14 -6 -10 -66z"/>
<path d="M3635 1881 c3 -2 -2 -15 -10 -28 -18 -27 -10 -77 11 -69 17 7 77 -43
71 -59 -3 -6 1 -12 9 -12 7 0 10 5 7 10 -4 6 0 8 10 4 9 -3 19 -2 23 4 3 6 12
8 19 5 8 -3 25 4 39 15 22 17 24 24 15 41 -11 20 -11 19 -40 -8 l-29 -28 -45
49 c-42 46 -49 58 -46 77 0 4 -8 6 -19 5 -10 -1 -17 -3 -15 -6z"/>
<path d="M1600 1870 c0 -5 5 -10 10 -10 6 0 10 5 10 10 0 6 -4 10 -10 10 -5 0
-10 -4 -10 -10z"/>
<path d="M1928 1863 c7 -3 16 -2 19 1 4 3 -2 6 -13 5 -11 0 -14 -3 -6 -6z"/>
<path d="M2104 1853 c3 -16 16 -22 16 -8 0 3 0 10 0 15 0 6 -4 10 -9 10 -5 0
-8 -8 -7 -17z"/>
<path d="M2190 1856 c0 -12 -5 -16 -14 -13 -9 4 -19 -5 -26 -24 -26 -62 -79
-58 -106 8 l-15 35 -20 -38 c-11 -22 -28 -78 -39 -126 -28 -127 -63 -168 -113
-135 -56 36 -131 28 -120 -13 6 -21 18 -26 28 -10 3 5 35 -10 70 -33 46 -30
63 -47 61 -59 -2 -10 0 -18 5 -18 10 0 10 2 14 39 2 24 28 51 49 51 13 0 72
81 68 93 -1 4 3 7 9 7 5 0 7 5 4 10 -8 12 1 13 23 1 15 -8 17 -3 17 32 0 40 2
42 32 45 20 2 40 13 51 27 19 23 39 122 27 133 -3 3 -5 -3 -5 -12z"/>
<path d="M2237 1853 c-12 -12 -7 -22 8 -17 8 4 15 10 15 15 0 11 -14 12 -23 2z"/>
<path d="M1180 1816 c0 -53 53 -57 80 -6 18 33 11 40 -35 40 -44 0 -45 0 -45
-34z"/>
<path d="M1932 1838 c-9 -63 -9 -109 0 -100 14 14 23 112 11 112 -5 0 -10 -6
-11 -12z"/>
<path d="M2211 1834 c0 -11 3 -14 6 -6 3 7 2 16 -1 19 -3 4 -6 -2 -5 -13z"/>
<path d="M4150 1840 c-8 -33 -7 -46 3 -58 6 -8 12 -23 14 -34 2 -11 9 -25 16
-33 11 -11 16 -10 25 6 16 25 15 36 -4 57 -8 9 -24 28 -34 42 -11 14 -20 23
-20 20z"/>
<path d="M3107 1824 c-4 -4 -7 -17 -7 -28 1 -19 1 -20 11 -3 11 19 8 43 -4 31z"/>
<path d="M3171 1804 c0 -11 3 -14 6 -6 3 7 2 16 -1 19 -3 4 -6 -2 -5 -13z"/>
<path d="M2676 1796 c3 -9 11 -16 16 -16 13 0 5 23 -10 28 -7 2 -10 -2 -6 -12z"/>
<path d="M4423 1797 c-13 -5 -34 -29 -48 -53 -20 -33 -35 -46 -66 -55 -32 -10
-39 -17 -37 -33 2 -12 16 -27 36 -35 31 -14 41 -34 23 -45 -5 -3 -14 -20 -20
-36 -5 -17 -6 -28 -1 -25 14 9 23 -15 10 -29 -6 -8 -10 -30 -8 -50 2 -27 5
-33 15 -24 7 6 13 25 13 42 0 17 6 41 14 52 8 11 17 40 21 66 6 38 18 58 71
116 35 39 64 75 64 80 0 5 -12 13 -27 17 -15 3 -30 10 -33 14 -3 5 -15 4 -27
-2z"/>
<path d="M1023 1765 c-18 -8 -33 -19 -33 -25 0 -5 -9 -10 -20 -10 -11 0 -20
-7 -20 -15 0 -8 6 -15 13 -15 7 0 29 -11 49 -25 33 -22 36 -28 31 -58 -7 -43
16 -67 64 -67 28 0 43 8 74 40 45 46 46 50 20 50 -30 0 -51 11 -51 26 0 8 -4
14 -9 14 -4 0 -11 18 -14 41 -3 22 -8 43 -11 46 -12 12 -63 11 -93 -2z"/>
<path d="M3218 1763 c-41 -6 -48 -45 -14 -76 20 -19 26 -34 26 -66 0 -31 -3
-40 -12 -35 -8 4 -10 3 -5 -2 5 -5 12 -8 15 -7 4 0 15 -3 26 -9 10 -5 16 -6
13 -1 -3 4 -1 31 3 58 6 39 4 59 -10 90 -14 29 -15 42 -7 47 7 4 8 7 2 6 -5 0
-22 -3 -37 -5z"/>
<path d="M3377 1753 c-10 -9 -9 -23 1 -23 5 0 9 7 9 15 0 17 -1 18 -10 8z"/>
<path d="M2910 1722 c0 -7 -4 -11 -8 -8 -4 2 -14 1 -22 -5 -10 -5 -11 -9 -3
-9 7 0 17 -10 24 -21 9 -18 7 -27 -12 -53 -16 -21 -23 -43 -21 -70 1 -30 -5
-46 -23 -64 -21 -20 -25 -34 -24 -79 2 -68 23 -96 95 -128 49 -22 54 -27 54
-57 1 -34 16 -61 38 -66 7 -1 12 10 12 30 0 35 20 98 31 98 4 0 5 8 2 18 -2
10 3 38 11 62 19 55 20 70 3 70 -8 0 -22 9 -31 19 -25 28 -56 16 -56 -20 0
-48 -26 -99 -50 -99 -31 0 -40 37 -21 90 9 25 19 46 23 48 4 2 4 10 1 18 -3 8
5 26 17 40 13 13 20 24 15 24 -4 0 -14 -8 -20 -17 -12 -16 -14 -14 -20 20 -5
24 -3 42 5 52 7 8 9 15 5 15 -4 0 0 12 10 26 17 26 16 27 -9 53 -14 14 -26 20
-26 13z"/>
<path d="M1850 1710 c20 -13 33 -13 25 0 -3 6 -14 10 -23 10 -15 0 -15 -2 -2
-10z"/>
<path d="M3807 1680 c-3 -23 -20 -61 -40 -89 -30 -41 -33 -51 -22 -61 18 -15
99 27 103 55 8 49 3 86 -16 109 l-19 25 -6 -39z"/>
<path d="M2749 1663 c-1 -81 -9 -144 -23 -172 -7 -14 -11 -42 -9 -62 4 -30 8
-36 24 -32 23 6 29 24 28 98 0 120 1 151 3 179 2 16 -2 31 -9 33 -9 3 -13 -10
-14 -44z"/>
<path d="M1766 1643 c7 -37 14 -42 14 -10 0 14 -4 28 -9 32 -6 3 -8 -6 -5 -22z"/>
<path d="M3148 1653 c-27 -31 -48 -82 -52 -122 -3 -38 -2 -39 19 -29 27 12 54
69 57 120 3 45 -4 54 -24 31z"/>
<path d="M2161 1644 c0 -11 3 -14 6 -6 3 7 2 16 -1 19 -3 4 -6 -2 -5 -13z"/>
<path d="M2672 1611 c-7 -21 -9 -54 -5 -72 l6 -34 18 40 c20 46 24 85 8 85 -5
0 -7 5 -4 10 3 6 2 10 -3 10 -5 0 -14 -17 -20 -39z"/>
<path d="M1250 1630 c0 -5 9 -10 20 -10 11 0 20 5 20 10 0 6 -9 10 -20 10 -11
0 -20 -4 -20 -10z"/>
<path d="M1647 1634 c-8 -8 2 -55 14 -68 10 -11 59 1 59 14 0 6 -7 10 -15 10
-9 0 -15 9 -15 25 0 18 -5 25 -18 25 -10 0 -22 -3 -25 -6z"/>
<path d="M3974 1583 c-10 -27 -21 -52 -24 -58 -12 -17 -19 -60 -14 -81 4 -14
19 -23 55 -31 87 -21 129 9 129 93 0 42 -25 47 -35 7 -10 -42 -34 -63 -71 -63
-18 0 -35 4 -38 8 -2 4 4 43 14 87 11 44 19 81 20 83 0 1 -4 2 -9 2 -5 0 -17
-21 -27 -47z"/>
<path d="M2137 1597 c-8 -21 6 -38 23 -27 13 8 13 11 -1 25 -14 14 -17 14 -22
2z"/>
<path d="M3401 1587 c-8 -10 -7 -14 4 -14 8 0 16 6 19 14 3 7 2 13 -3 13 -5 0
-14 -6 -20 -13z"/>
<path d="M2040 1541 c-14 -28 -12 -57 5 -71 9 -7 13 -15 11 -18 -3 -2 2 -11
10 -20 14 -13 17 -13 25 -1 11 17 12 25 9 64 -4 60 -38 86 -60 46z"/>
<path d="M2550 1535 c-7 -8 -9 -15 -5 -15 4 0 1 -8 -6 -17 -13 -16 -12 -17 4
-4 9 8 15 16 12 19 -3 3 0 11 6 19 6 7 9 13 6 13 -2 0 -10 -7 -17 -15z"/>
<path d="M1401 1493 c-15 -13 -19 -25 -15 -40 7 -26 44 -32 44 -8 0 8 6 15 14
15 19 0 33 -23 18 -28 -17 -5 -15 -33 4 -70 17 -35 24 -38 41 -21 8 8 8 20 3
34 -10 26 -8 64 4 83 11 19 -1 30 -29 24 -16 -3 -33 2 -44 12 -17 15 -20 15
-40 -1z"/>
<path d="M2259 1505 c-1 -5 -2 -15 -3 -21 -1 -12 -62 -84 -71 -84 -21 0 -65
-47 -65 -69 0 -13 -5 -40 -12 -58 -10 -28 -10 -36 2 -43 28 -17 60 18 65 71 1
9 25 39 53 65 65 62 78 94 52 126 -11 13 -20 19 -21 13z"/>
<path d="M3190 1505 c-8 -45 -8 -47 2 -37 5 5 8 18 5 28 -3 11 -6 15 -7 9z"/>
<path d="M1733 1481 c-27 -22 -28 -36 -8 -75 8 -15 13 -39 11 -52 -3 -14 -1
-22 3 -20 8 5 71 -24 95 -43 9 -7 16 -7 23 0 17 17 27 -10 13 -36 -10 -19 -10
-29 4 -56 9 -17 16 -37 16 -43 0 -18 63 -52 68 -38 8 26 22 -1 22 -43 0 -50
22 -63 54 -31 16 16 20 34 20 93 1 51 5 76 15 82 11 7 9 13 -8 30 -11 11 -28
21 -36 21 -8 0 -17 11 -21 25 -6 26 -61 80 -98 96 -11 5 -39 23 -61 39 -32 23
-42 26 -50 16 -9 -12 -14 -12 -30 0 -15 11 -16 17 -7 26 29 29 8 36 -25 9z
m257 -235 c0 -11 -19 -15 -25 -6 -3 5 1 10 9 10 9 0 16 -2 16 -4z m-60 -36
c-8 -5 -17 -7 -19 -4 -3 3 1 9 9 14 8 5 17 7 19 4 3 -3 -1 -9 -9 -14z"/>
<path d="M2660 1481 c0 -10 -9 -30 -20 -44 -23 -29 -26 -72 -6 -80 8 -3 19 7
28 26 17 38 23 117 8 117 -5 0 -10 -8 -10 -19z"/>
<path d="M1180 1464 c0 -9 -9 -18 -20 -21 -17 -5 -19 -11 -14 -39 4 -22 2 -34
-5 -34 -13 0 -15 -46 -2 -54 5 -3 11 4 14 16 5 18 8 19 22 8 8 -7 13 -21 10
-30 -3 -11 1 -20 10 -24 8 -3 15 -15 15 -26 0 -11 7 -23 15 -26 9 -4 15 -11
14 -18 -3 -28 2 -37 19 -32 26 8 46 -65 32 -114 -14 -49 -14 -50 20 -50 17 0
30 -4 30 -10 0 -5 13 -7 29 -5 21 2 28 -1 27 -12 -2 -33 23 -23 30 11 8 44 -1
81 -25 105 -9 9 -20 25 -24 34 -3 9 -11 17 -17 17 -7 0 -10 12 -9 28 2 18 -5
39 -19 56 -13 17 -22 43 -22 62 0 18 -5 36 -11 39 -7 5 -5 13 6 25 22 24 10
68 -21 76 -13 3 -28 12 -35 20 -16 20 -69 18 -69 -2z"/>
<path d="M1295 1469 c-10 -15 3 -25 16 -12 7 7 7 13 1 17 -6 3 -14 1 -17 -5z"/>
<path d="M2017 1413 c-11 -10 -8 -61 3 -68 16 -10 47 4 47 20 0 18 -41 58 -50
48z"/>
<path d="M3492 1387 c-9 -10 -10 -17 -2 -22 16 -10 12 -45 -5 -45 -8 0 -15 -7
-15 -15 0 -19 32 -33 38 -17 2 7 10 12 18 12 9 0 14 11 14 30 0 17 -4 30 -8
30 -5 0 -13 9 -18 21 -9 19 -11 19 -22 6z"/>
<path d="M3430 1374 c0 -9 5 -14 12 -12 18 6 21 28 4 28 -9 0 -16 -7 -16 -16z"/>
<path d="M3697 1383 c-9 -16 -8 -181 1 -187 10 -6 45 57 47 86 1 10 4 21 8 24
10 10 -14 64 -33 74 -11 6 -21 7 -23 3z"/>
<path d="M2485 1359 c-5 -14 -3 -25 4 -27 6 -2 8 -9 5 -14 -4 -7 -2 -8 4 -4
14 8 15 35 3 55 -7 11 -10 8 -16 -10z"/>
<path d="M2747 1363 c-2 -5 -7 -21 -11 -36 -5 -21 -3 -28 6 -25 7 3 14 19 15
36 1 32 -2 39 -10 25z"/>
<path d="M4177 1363 c-10 -10 -8 -53 2 -53 8 0 20 32 21 53 0 9 -14 9 -23 0z"/>
<path d="M2560 1349 c0 -5 5 -7 10 -4 6 3 10 8 10 11 0 2 -4 4 -10 4 -5 0 -10
-5 -10 -11z"/>
<path d="M2081 1334 c0 -11 3 -14 6 -6 3 7 2 16 -1 19 -3 4 -6 -2 -5 -13z"/>
<path d="M2617 1343 c-10 -9 -9 -23 1 -23 5 0 9 7 9 15 0 17 -1 18 -10 8z"/>
<path d="M4270 1328 c0 -17 2 -18 15 -4 8 8 15 16 15 19 0 2 -7 4 -15 4 -8 0
-15 -9 -15 -19z"/>
<path d="M3340 1300 c0 -13 5 -20 13 -17 6 2 12 10 12 17 0 7 -6 15 -12 18 -8
2 -13 -5 -13 -18z"/>
<path d="M2615 1300 c3 -5 2 -10 -4 -10 -6 0 -8 -7 -4 -16 5 -13 7 -13 14 -2
12 18 11 38 -2 38 -5 0 -7 -4 -4 -10z"/>
<path d="M3270 1303 c-30 -5 -51 -29 -43 -49 15 -39 -44 -111 -70 -85 -18 18
-37 13 -37 -10 0 -12 -13 -41 -30 -66 -16 -24 -30 -50 -30 -58 0 -8 -4 -16 -9
-20 -6 -3 -17 -19 -25 -36 -15 -29 -14 -31 23 -67 21 -20 43 -47 50 -59 13
-26 43 -30 61 -8 7 8 13 35 14 60 2 50 25 87 28 45 0 -14 0 -34 -1 -46 0 -11
8 -29 19 -39 11 -10 20 -26 20 -36 0 -24 88 -115 100 -103 5 5 12 40 15 77 5
66 5 69 -25 93 -16 14 -30 33 -30 41 0 8 -8 31 -17 51 -13 26 -14 37 -5 40 7
2 10 8 7 12 -3 5 3 18 15 30 11 11 16 20 11 20 -5 0 -11 11 -13 25 -3 14 -2
25 1 25 12 0 12 82 0 96 -9 11 -8 18 5 32 9 10 16 24 16 30 0 12 -5 13 -50 5z"/>
<path d="M2525 1280 c-3 -5 1 -10 10 -10 9 0 13 5 10 10 -3 6 -8 10 -10 10 -2
0 -7 -4 -10 -10z"/>
<path d="M4167 1265 c7 -19 25 -15 31 6 3 11 2 11 -7 -1 -7 -10 -11 -11 -11
-2 0 6 -4 12 -10 12 -5 0 -7 -7 -3 -15z"/>
<path d="M2197 1233 c-39 -30 -46 -43 -23 -43 8 0 27 -5 41 -10 23 -9 25 -13
15 -25 -15 -18 -7 -30 13 -22 16 6 18 118 1 124 -5 2 -27 -9 -47 -24z"/>
<path d="M2507 1252 c-14 -6 -15 -10 -5 -22 7 -9 12 -13 11 -11 -1 2 2 12 8
22 5 11 8 19 7 18 -2 0 -11 -4 -21 -7z"/>
<path d="M3071 1233 c-6 -13 -11 -36 -11 -50 0 -24 1 -25 23 -10 16 10 22 24
22 49 0 40 -18 46 -34 11z"/>
<path d="M3953 1231 c-7 -10 -31 -25 -55 -33 -49 -17 -68 -44 -68 -101 0 -30
-7 -45 -30 -67 -29 -27 -39 -63 -21 -74 15 -10 38 4 49 30 7 13 16 24 22 24
14 0 12 -27 -2 -33 -10 -4 -10 -6 0 -6 7 -1 10 -6 6 -13 -5 -7 -3 -8 6 -3 10
6 12 3 8 -13 -4 -12 -2 -20 2 -17 5 3 8 18 8 33 -1 15 4 37 11 49 6 12 11 42
11 67 0 41 3 47 31 61 33 18 59 66 52 96 -7 24 -15 24 -30 0z"/>
<path d="M4190 1235 c-6 -8 -9 -19 -5 -25 3 -5 1 -10 -5 -10 -6 0 -8 -5 -4
-11 5 -8 9 -8 14 1 6 9 9 9 13 -1 4 -10 6 -9 6 3 1 9 -5 18 -11 21 -10 3 -10
7 1 20 7 10 11 17 8 17 -2 0 -10 -7 -17 -15z"/>
<path d="M2440 1224 c0 -8 5 -12 10 -9 6 3 10 10 10 16 0 5 -4 9 -10 9 -5 0
-10 -7 -10 -16z"/>
<path d="M3390 1230 c0 -5 5 -10 11 -10 5 0 7 5 4 10 -3 6 -8 10 -11 10 -2 0
-4 -4 -4 -10z"/>
<path d="M2886 1214 c-8 -22 4 -40 15 -23 11 18 11 39 0 39 -5 0 -12 -7 -15
-16z"/>
<path d="M3383 1197 c7 -19 -19 -50 -35 -42 -10 6 -10 5 -1 -5 10 -11 16 -10
32 4 12 11 21 14 26 7 11 -19 25 -12 25 13 0 22 -16 36 -42 36 -6 0 -8 -6 -5
-13z"/>
<path d="M2450 1190 c0 -5 5 -10 11 -10 5 0 7 5 4 10 -3 6 -8 10 -11 10 -2 0
-4 -4 -4 -10z"/>
<path d="M2140 1149 c-13 -24 -4 -41 10 -19 10 16 13 40 5 40 -2 0 -9 -9 -15
-21z"/>
<path d="M1800 1125 c0 -37 22 -49 34 -19 9 23 -2 54 -20 54 -9 0 -14 -11 -14
-35z"/>
<path d="M2871 1107 c-36 -74 -25 -111 30 -105 24 2 33 7 30 18 -2 8 -9 39
-16 68 -7 29 -15 55 -18 58 -2 3 -14 -15 -26 -39z"/>
<path d="M3543 1133 c-26 -5 -31 -28 -8 -37 15 -5 21 -37 9 -49 -11 -11 -46
14 -40 28 5 14 -33 55 -51 55 -6 0 -13 -13 -17 -30 -3 -16 -9 -43 -12 -58 -6
-29 18 -63 30 -43 4 6 18 6 38 0 19 -5 36 -5 41 0 5 5 16 7 25 4 12 -5 14 -1
10 15 -4 15 -2 22 8 22 8 0 14 -9 14 -19 0 -25 11 -32 39 -24 17 4 21 12 19
32 -2 21 -8 25 -25 23 -18 -3 -23 2 -23 18 0 14 -8 24 -21 27 -14 4 -19 12
-16 24 3 11 4 18 4 18 -1 -1 -12 -4 -24 -6z"/>
<path d="M3335 1120 c-3 -6 1 -7 9 -4 18 7 21 14 7 14 -6 0 -13 -4 -16 -10z"/>
<path d="M3014 1075 c-4 -8 -14 -15 -24 -15 -10 0 -20 -9 -23 -20 -8 -30 9
-33 28 -4 9 14 22 23 29 21 6 -3 12 3 12 14 0 23 -14 25 -22 4z"/>
<path d="M2585 1070 c-17 -28 -23 -69 -10 -74 16 -6 48 39 43 61 -4 20 -24 28
-33 13z"/>
<path d="M3686 1045 c4 -8 16 -15 27 -15 20 0 20 0 1 15 -25 19 -35 19 -28 0z"/>
<path d="M1820 1040 c-12 -7 -15 -37 -16 -157 0 -143 -1 -148 -21 -151 -12 -2
-33 4 -47 13 -19 13 -29 14 -45 6 -11 -6 -27 -11 -37 -11 -19 0 -43 -27 -44
-50 0 -26 35 -39 94 -36 43 3 65 10 93 32 26 19 47 27 67 25 25 -2 28 0 23 18
-3 12 -1 22 4 22 5 1 13 2 18 3 4 0 22 16 38 33 26 27 28 34 16 44 -7 7 -12
18 -9 25 3 7 0 16 -6 20 -6 4 -8 3 -5 -3 4 -6 -6 -27 -22 -47 -36 -45 -41 -35
-41 75 0 73 2 79 20 79 12 0 24 -9 29 -22 9 -23 9 -23 19 4 6 15 12 39 14 55
3 28 3 28 -62 31 -36 1 -72 -2 -80 -8z"/>
<path d="M2048 1006 c-14 -10 -14 -14 -2 -31 13 -17 16 -18 24 -5 12 18 12 22
2 37 -5 8 -11 8 -24 -1z"/>
<path d="M2670 1011 c0 -6 5 -13 10 -16 6 -3 10 1 10 9 0 9 -4 16 -10 16 -5 0
-10 -4 -10 -9z"/>
<path d="M1575 980 c3 -5 1 -17 -4 -27 -5 -10 -12 -25 -14 -34 -6 -18 -68 -32
-106 -24 -13 2 -33 -2 -45 -10 -27 -20 -44 -19 -49 3 -4 15 -5 15 -6 -2 0 -11
-9 -28 -18 -38 -16 -18 -15 -19 6 -34 16 -11 21 -23 17 -38 -5 -20 -5 -20 9
-2 13 17 29 20 109 22 52 1 120 -1 153 -6 62 -8 73 -6 56 11 -7 7 -9 34 -6 68
5 50 3 60 -18 83 -22 24 -97 49 -84 28z"/>
<path d="M3414 906 c-3 -9 -12 -16 -20 -16 -9 0 -14 -11 -14 -31 0 -28 2 -30
33 -27 30 3 32 5 32 42 0 40 -20 61 -31 32z"/>
<path d="M3512 859 c2 -22 8 -34 18 -34 22 0 27 -83 5 -91 -9 -4 -24 1 -34 10
-13 12 -21 14 -26 6 -4 -6 -15 -8 -24 -5 -14 4 -22 -4 -34 -37 -30 -84 -30
-85 2 -91 21 -5 34 -16 46 -41 9 -20 25 -38 35 -41 11 -3 17 -12 14 -19 -3 -8
10 -23 31 -36 41 -26 40 -42 -7 -102 -22 -28 -27 -42 -20 -55 5 -10 7 -23 5
-30 -3 -7 8 -15 24 -18 15 -4 33 -8 40 -10 24 -8 111 36 117 58 10 38 7 47
-35 92 -38 42 -40 45 -30 81 11 38 -4 93 -29 109 -14 8 -34 56 -30 70 6 21 -2
100 -11 109 -5 6 -9 20 -9 33 0 14 -6 23 -15 23 -8 0 -15 9 -15 19 0 11 -5 23
-11 26 -7 5 -9 -5 -7 -26z"/>
<path d="M3119 778 c-4 -16 -19 -192 -19 -225 1 -45 -21 -106 -47 -135 -11
-12 -14 -27 -9 -53 7 -34 9 -35 49 -34 72 1 110 19 123 59 9 27 28 46 85 85
59 40 75 56 77 79 5 41 -11 53 -44 32 -25 -17 -41 -17 -104 -3 -21 5 -60 65
-60 94 0 15 -8 27 -22 33 -19 7 -20 9 -5 9 25 1 20 54 -5 59 -10 2 -18 2 -19
0z"/>
<path d="M2160 720 c-12 -8 -11 -10 8 -10 12 0 22 5 22 10 0 13 -11 13 -30 0z"/>
<path d="M1520 685 c0 -10 10 -15 30 -15 20 0 30 5 30 15 0 10 -10 15 -30 15
-20 0 -30 -5 -30 -15z"/>
<path d="M2680 590 c-6 -11 -8 -25 -5 -30 4 -6 -12 -10 -39 -10 -35 0 -49 -5
-63 -23 -23 -30 -68 -45 -114 -39 -46 5 -51 -4 -55 -89 -3 -55 0 -70 13 -77
11 -6 12 -11 4 -16 -18 -11 -13 -26 9 -26 11 0 20 -4 20 -8 0 -4 16 -25 35
-46 34 -37 36 -38 82 -31 27 4 51 12 55 18 8 14 128 11 142 -3 6 -6 15 -2 22
8 11 14 15 15 23 3 7 -11 11 -10 20 8 9 16 9 21 0 21 -8 0 -4 9 7 22 42 48 54
130 20 136 -18 4 -70 -44 -62 -57 3 -4 -8 -18 -25 -30 -22 -16 -38 -21 -56
-16 -16 4 -29 1 -34 -6 -6 -10 -11 -10 -22 -1 -8 7 -19 12 -23 10 -15 -4 -104
24 -104 33 0 5 5 8 11 6 6 -1 19 13 29 30 33 61 39 65 92 58 39 -6 53 -4 69
11 21 19 18 47 -7 72 -8 7 -14 20 -14 28 0 9 -5 12 -12 8 -10 -6 -10 -4 0 7
14 15 16 49 2 49 -5 0 -14 -9 -20 -20z m20 -328 c0 -5 -16 -13 -35 -19 -39
-12 -42 -11 -19 11 16 17 54 22 54 8z"/>
<path d="M1990 521 c-30 -11 -68 -26 -85 -35 -16 -9 -39 -16 -51 -16 -11 0
-30 -9 -42 -20 -12 -11 -30 -20 -41 -20 -11 0 -25 -9 -31 -20 -6 -11 -18 -20
-27 -20 -30 0 -163 -71 -179 -96 -9 -13 -21 -24 -27 -24 -6 0 -25 -15 -42 -33
-16 -18 -42 -38 -57 -45 -31 -13 -35 -37 -13 -66 15 -19 16 -19 43 7 15 15 36
27 45 27 9 0 17 5 17 10 0 6 6 10 14 10 8 0 29 14 47 32 54 50 151 50 100 -1
-11 -11 -31 -27 -45 -36 -16 -11 -27 -29 -31 -56 -4 -21 -11 -39 -16 -39 -15
0 -10 -40 6 -46 8 -4 15 -12 15 -20 0 -28 27 -13 58 31 17 25 36 45 42 45 5 0
16 13 25 30 8 16 33 39 55 50 46 23 92 64 83 73 -10 11 -48 8 -60 -4 -7 -7
-15 -6 -26 5 -12 12 -22 14 -40 7 -27 -10 -37 -6 -37 16 0 7 11 13 24 13 14 0
30 10 40 25 9 14 22 25 29 24 28 -3 37 2 37 21 0 11 8 23 18 26 9 3 26 10 37
14 11 5 47 11 80 13 66 5 137 28 175 57 24 18 24 21 10 47 -20 36 -71 40 -150
14z"/>
<path d="M1470 398 c0 -7 5 -20 10 -28 9 -13 11 -13 20 0 5 8 8 20 7 25 -5 15
-37 18 -37 3z"/>
<path d="M2302 314 c-11 -8 -27 -11 -36 -8 -16 6 -97 -28 -119 -50 -12 -12
-162 -86 -175 -86 -11 -1 -45 -51 -38 -57 8 -8 74 25 79 40 3 9 7 9 18 1 14
-12 99 0 154 20 52 19 125 62 125 73 0 8 11 18 25 23 30 11 32 31 6 47 -14 9
-23 9 -39 -3z"/>
</g>
</svg>
